<svg xmlns="http://www.w3.org/2000/svg" viewBox="0 0 89.3 10.7" enable-background="new 0 0 89.3 10.7"><path fill="#fff" d="M36.3 7.2c.4-1.3.7-2.5 1.1-3.7h1.6l-2 5.4h-1.4c-.6-1.4-1.2-2.9-1.7-4.3-.2-.2-.4-.2-.7-.1v3.1c.2.3.6.1.8.3.1.3.1.6 0 .9-.1 0-.1.1-.1.1-2.5.2-2.3-.3-2.3-2.1v-2.2c-.2-.3-.5-.1-.7-.3-.1-.2-.1-.5 0-.7l.7-.3v-1.5c.5-.1.9-.1 1.4-.1l.2 1.7c.6.2 1.2 0 1.8.1.6 1.1.7 2.4 1.3 3.7z"/><path fill="#88BC45" d="M48.6 4v-2.3h1.6v7.3c-.5.1-.9.1-1.4 0l-.4-.4c-.5.3-1 .6-1.6.5-.8-.1-1.4-.6-1.6-1.4-.2-.8-.2-1.6-.1-2.4.2-1.5 1.7-2.3 3.1-1.5.1 0 .2.1.4.2zm-1.7 1.2c-.1.5-.1 1.2 0 1.8 0 .6.3.8.9.8.5 0 .8-.3.9-.8v-1c0-.8-.1-1-1-1.2-.4 0-.6.1-.8.4z"/><path fill="#88BC45" d="M66.4 5.7c.2-.5 0-.8-.4-1-.5-.2-.8 0-1.3.6h-1.3c-.2-.7.1-1.1.6-1.4.8-.6 2.5-.6 3.4-.1.5.3.8.8.8 1.4v3.7c-.4.2-.9.1-1.3.1l-.4-.4-.3.2c-.6.4-1.2.4-1.8.2-.6-.1-1-.4-1.1-1-.1-.6-.1-1.2.5-1.7.5-.4 1.1-.5 1.7-.6h.9zm-1.4 2c1 .4 1.4.2 1.5-.9-.5 0-1.1-.2-1.5.2-.1.2-.2.4 0 .7z"/><path fill="#88BC45" d="M44.4 6.9h-3.2c.1.9.8 1.1 2.3.6.2.3.4.7.5 1.1-.2.4-.5.4-.8.4-1 .2-2 .3-2.9-.3-.7-.4-1-1-1-1.7v-1c0-1.2.5-1.9 1.5-2.3 1-.4 2.5-.2 3.1.5.3.3.5.7.5 1.1-.1.5 0 1 0 1.6zm-2.5-2.2c-.8.3-.8.3-.8 1.1.5 0 1.1.1 1.6-.1 0-.6-.2-.8-.8-1z"/><path fill="#88BC45" d="M54.8 3.7c.3-.2.6-.1.8-.1.3 0 .6-.1.9.1v5.2l-1.4.1c-.3-.1-.2-.4-.3-.5l-.3.1c-.7.5-1.4.6-2.1.3-.5-.2-.9-.7-.9-1.2v-4.1c.6-.1 1.1-.1 1.7 0v3.5c.1.4.3.6.7.6.4 0 .6-.2.8-.5.1-.3.1-.6.1-.9v-2.6z"/><path fill="#88BC45" d="M81.1 6.3c0 1.5-.4 2.3-1.6 2.7-.8.3-1.7.3-2.5-.1s-1.2-1-1.2-1.8v-1.4c0-.9.5-1.6 1.4-2 .7-.3 1.4-.3 2.1-.1 1.3.3 1.8 1.2 1.8 2.7zm-3.1-1.4c-.5.7-.6 1.9-.1 2.7 1 .3 1.4.1 1.4-1v-1.3c-.5-.5-.5-.5-1.3-.4z"/><path fill="#88BC45" d="M85.1 4.9c-1-.1-1.3.2-1.4.9v3.1c-.6.1-1.1.1-1.6 0v-5.3c.5-.1 1-.1 1.4 0 .3.1.2.4.3.5 0 0 .1-.1.2-.1.5-.5 1.1-.5 1.7-.5.8.1 1.4.7 1.4 1.5v3.9c-.5.1-1.1.1-1.6 0-.3-1.3.3-2.7-.4-4z"/><path fill="#88BC45" d="M62.6 5.7h-1.6c-.2-.2-.2-.6-.5-.8-1-.3-1.3 0-1.4 1v.8c0 1 .4 1.3 1.4 1l.4-.7c.5-.1 1-.1 1.5 0 .1 1.1-.6 2-1.8 2.2h-1.3c-1.2-.1-2-1-2-2.2v-.6c-.2-2.4 2-3.3 4-2.5.9.2 1.3.8 1.3 1.8z"/><path fill="#fff" d="M30.7 6.5h-4.1c0 1.1.2 1.5 1 1.7 1 .3 1.7 0 2.2-1 .2-.1.4-.1.6 0 .1.1.1.2.1.2-.2.9-.7 1.4-1.6 1.5h-.7c-2.1.1-2.7-1.2-2.8-2.7v-.6c.2-2 1.3-2.8 3.7-2.4.7.1 1.1.6 1.3 1.2.3.8.4 1.4.3 2.1zm-1.1-.8c.1-1.1-.3-1.5-1.2-1.6-.8-.1-1.8.2-1.8 1.6h3z"/><path fill="#fff" d="M12.5 5.5c.2-.5.2-.9-.2-1.2-.7-.2-1.4-.2-1.9 0-.4.3-.3.6-.5.8-.3.1-.5.1-.7.1-.1-.9.1-1.4 1-1.7.7-.2 1.3-.2 2-.1.9.1 1.3.5 1.4 1.4.1.8 0 1.5 0 2.3v.9c.1.3.4.2.5.3.1.2.1.4 0 .6-.6 0-1.1.1-1.4-.6-.7.9-1.6.8-2.5.7-.8 0-1.2-.4-1.3-1.1-.2-.9.1-1.4.7-1.7.5-.3 1.1-.4 1.6-.4.4-.1.8-.2 1.3-.3zm-2.6 1.4c-.1.4-.1.7 0 1 .7.5 1.4.5 2 .1.7-.5.7-1.2.6-1.9-.8.4-1.8.2-2.6.8z"/><path fill="#88BC45" d="M69.6 5.1c-.2-.3-.5-.1-.6-.3-.1-.3-.1-.7 0-1 .2-.2.5 0 .6-.3 0-.4 0-.8.1-1.3h1.6l.2 1.4 1 .2c.2.3 0 .7.1 1l-1.1.2c-.1.8-.1 1.6 0 2.3.3.4.7.2 1 .3.2.4.1.8.1 1.2-.6.3-1.2.3-1.9.2-.6-.1-1-.6-1-1.3-.1-.9-.1-1.8-.1-2.6z"/><path fill="#fff" d="M19.2 8.9c-.3.1-.6.1-.9 0v-3.5c0-1-.3-1.3-1-1.3-.9-.1-1.6.4-1.7 1.3-.1.7 0 1.5 0 2.2v1.3c-.3.1-.6.1-.9 0v-5.3c.3-.2.6-.1.8-.1l.2.5c.6-.7 1.4-.7 2.2-.6.9.1 1.3.5 1.4 1.4 0 1.3-.1 2.7-.1 4.1z"/><path fill="#fff" d="M25 5.1c-.3.1-.6.1-.8 0-.5-1-.9-1.2-1.8-1.1-.7.1-1.1.5-1.3 1.2-.1.5-.2 1-.1 1.5.2 1.4 1.5 2.1 2.7 1.3.1 0 .1-.1.2-.2.1-.3.2-.5.2-.8.3 0 .6 0 .9.1 0 1-.4 1.6-1.3 1.9-.8.2-1.6.2-2.3 0-.8-.3-1.1-.9-1.3-1.7-.1-.7-.1-1.4 0-2 .2-1 .8-1.6 1.8-1.8.5-.1 1.1-.1 1.6 0 .9 0 1.3.5 1.5 1.6z"/><path fill="#fff" d="M3 4.5c-.2-.3-.5-.1-.7-.3-.1-.2-.1-.4-.1-.6.2-.3.5 0 .7-.2.2-1.9.4-2.1 1.9-2 .2.2.1.4.1.7-.3.2-.7-.1-.9.3-.1.3-.1.6 0 1l.9.2c.1.2 0 .4 0 .6l-1 .2v4.5c-.3.1-.6.1-.9 0v-4.4z"/><path fill="#88BC45" d="M73.4 3.7c.8-.2.9-.2 1.6 0v5.2c-.5.1-1 .1-1.6 0v-5.2z"/><path fill="#fff" d="M8.6 3.4c.1.3.1.5 0 .8-.2 0-.5 0-.7.1-1 0-1.4.5-1.4 1.4v3.1999999999999997l-1 .1v-5.4c.3-.1.5-.1.7-.1.3.1.2.3.3.5.5-.7 1.2-.8 2.1-.6z"/><path fill="#88BC45" d="M75.2 2.2c-.3.8-.6 1.1-1.2 1-.5-.1-.8-.5-.8-.9s.3-.9.8-1c.6-.1.9.1 1.2.9z"/><path fill="#88BC45" d="M42.4 3c-.3 0-.6.1-.9 0 0-.6.4-1.1.7-1.6h1.6c-.4.6-.9 1-1.4 1.6z"/></svg>