<?xml version="1.0" encoding="utf-8"?>
<!DOCTYPE svg PUBLIC "-//W3C//DTD SVG 1.1//EN" "http://www.w3.org/Graphics/SVG/1.1/DTD/svg11.dtd">
<svg version="1.1" xmlns="http://www.w3.org/2000/svg" xmlns:xlink="http://www.w3.org/1999/xlink" x="0px" y="0px"
	 viewBox="0 0 191 43" enable-background="new 0 0 191 43" xml:space="preserve">
<path fill="none" d="M188.9,21.7l-6.6-6.5l-4.9,4.8L105.3,3c-5.8-1.4-11.8-1.4-17.5,0L13.5,20.6l-5.5-5.3
	l-6.4,6.3L8.2,28l5.8-5.7l75.7,18c5.8,1.4,11.8,1.4,17.5,0l70.6-16.8l4.6,4.5L188.9,21.7z"/>
<path d="M188.9,19.8l-6.6-6.5l-4.9,4.8L105.3,1c-5.8-1.4-11.8-1.4-17.5,0L13.5,18.7l-5.5-5.3l-6.4,6.3l6.6,6.5l5.8-5.7l75.7,18
	c5.8,1.4,11.8,1.4,17.5,0l70.6-16.8l4.6,4.5L188.9,19.8z"/>
</svg>
