<?xml version="1.0" encoding="utf-8"?>
<!DOCTYPE svg PUBLIC "-//W3C//DTD SVG 1.1//EN" "http://www.w3.org/Graphics/SVG/1.1/DTD/svg11.dtd">
<svg version="1.1" xmlns="http://www.w3.org/2000/svg" xmlns:xlink="http://www.w3.org/1999/xlink" x="0px" y="0px"
	 viewBox="0 0 89.3 10.7" enable-background="new 0 0 89.3 10.7" xml:space="preserve">
<path fill="#FFFFFF" d="M36.3,7.2c0.4-1.3,0.7-2.5,1.1-3.7c0.5,0,1,0,1.6,0c-0.7,1.8-1.3,3.6-2,5.4c-0.5,0-0.9,0-1.4,0
	C35,7.5,34.4,6,33.9,4.6c-0.2-0.2-0.4-0.2-0.7-0.1c0,1,0,2.1,0,3.1c0.2,0.3,0.6,0.1,0.8,0.3c0.1,0.3,0.1,0.6,0,0.9
	c-0.1,0-0.1,0.1-0.1,0.1c-2.5,0.2-2.3-0.3-2.3-2.1c0-0.8,0-1.5,0-2.2c-0.2-0.3-0.5-0.1-0.7-0.3c-0.1-0.2-0.1-0.5,0-0.7
	c0.2-0.3,0.5,0,0.7-0.3c0-0.4,0-1,0-1.5c0.5-0.1,0.9-0.1,1.4-0.1c0.2,0.5,0,1.1,0.2,1.7c0.6,0.2,1.2,0,1.8,0.1
	C35.6,4.6,35.7,5.9,36.3,7.2z"/>
<path fill="#88BC45" d="M48.6,4c0-0.8,0-1.5,0-2.3c0.6,0,1,0,1.6,0c0,2.4,0,4.8,0,7.3c-0.5,0.1-0.9,0.1-1.4,0
	c-0.2-0.1-0.2-0.3-0.4-0.4c-0.5,0.3-1,0.6-1.6,0.5C46,9,45.4,8.5,45.2,7.7C45,6.9,45,6.1,45.1,5.3c0.2-1.5,1.7-2.3,3.1-1.5
	C48.3,3.8,48.4,3.9,48.6,4z M46.9,5.2c-0.1,0.5-0.1,1.2,0,1.8c0,0.6,0.3,0.8,0.9,0.8c0.5,0,0.8-0.3,0.9-0.8c0-0.3,0-0.7,0-1
	c0-0.8-0.1-1-1-1.2C47.3,4.8,47.1,4.9,46.9,5.2z"/>
<path fill="#88BC45" d="M66.4,5.7c0.2-0.5,0-0.8-0.4-1c-0.5-0.2-0.8,0-1.3,0.6c-0.4,0-0.8,0-1.3,0c-0.2-0.7,0.1-1.1,0.6-1.4
	c0.8-0.6,2.5-0.6,3.4-0.1c0.5,0.3,0.8,0.8,0.8,1.4c0,1.2,0,2.4,0,3.7C67.8,9.1,67.3,9,66.9,9c-0.2-0.1-0.2-0.3-0.4-0.4
	c-0.1,0.1-0.2,0.1-0.3,0.2c-0.6,0.4-1.2,0.4-1.8,0.2c-0.6-0.1-1-0.4-1.1-1c-0.1-0.6-0.1-1.2,0.5-1.7c0.5-0.4,1.1-0.5,1.7-0.6
	C65.7,5.7,66,5.7,66.4,5.7z M65,7.7c1,0.4,1.4,0.2,1.5-0.9c-0.5,0-1.1-0.2-1.5,0.2C64.9,7.2,64.8,7.4,65,7.7z"/>
<path fill="#88BC45" d="M44.4,6.9c-1.2,0-2.2,0-3.2,0C41.3,7.8,42,8,43.5,7.5c0.2,0.3,0.4,0.7,0.5,1.1c-0.2,0.4-0.5,0.4-0.8,0.4
	c-1,0.2-2,0.3-2.9-0.3c-0.7-0.4-1-1-1-1.7c0-0.3,0-0.7,0-1c0-1.2,0.5-1.9,1.5-2.3c1-0.4,2.5-0.2,3.1,0.5c0.3,0.3,0.5,0.7,0.5,1.1
	C44.3,5.8,44.4,6.3,44.4,6.9z M41.9,4.7C41.1,5,41.1,5,41.1,5.8c0.5,0,1.1,0.1,1.6-0.1C42.7,5.1,42.5,4.9,41.9,4.7z"/>
<path fill="#88BC45" d="M54.8,3.7c0.3-0.2,0.6-0.1,0.8-0.1c0.3,0,0.6-0.1,0.9,0.1c0,1.7,0,3.5,0,5.2c-0.5,0.1-1,0-1.4,0.1
	c-0.3-0.1-0.2-0.4-0.3-0.5c-0.1,0-0.2,0.1-0.3,0.1c-0.7,0.5-1.4,0.6-2.1,0.3c-0.5-0.2-0.9-0.7-0.9-1.2c0-1.3,0-2.7,0-4.1
	c0.6-0.1,1.1-0.1,1.7,0c0,0.9,0,1.8,0,2.7c0,0.3,0,0.5,0,0.8c0.1,0.4,0.3,0.6,0.7,0.6c0.4,0,0.6-0.2,0.8-0.5
	c0.1-0.3,0.1-0.6,0.1-0.9C54.8,5.4,54.8,4.5,54.8,3.7z"/>
<path fill="#88BC45" d="M81.1,6.3c0,1.5-0.4,2.3-1.6,2.7c-0.8,0.3-1.7,0.3-2.5-0.1c-0.8-0.4-1.2-1-1.2-1.8c0-0.5,0-0.9,0-1.4
	c0-0.9,0.5-1.6,1.4-2c0.7-0.3,1.4-0.3,2.1-0.1C80.6,3.9,81.1,4.8,81.1,6.3z M78,4.9c-0.5,0.7-0.6,1.9-0.1,2.7c1,0.3,1.4,0.1,1.4-1
	c0-0.4,0-0.9,0-1.3C78.8,4.8,78.8,4.8,78,4.9z"/>
<path fill="#88BC45" d="M85.1,4.9c-1-0.1-1.3,0.2-1.4,0.9c0,0.7,0,1.5,0,2.2c0,0.3,0,0.6,0,0.9c-0.6,0.1-1.1,0.1-1.6,0
	c0-1.8,0-3.5,0-5.3c0.5-0.1,1-0.1,1.4,0c0.3,0.1,0.2,0.4,0.3,0.5C83.8,4.1,83.9,4,84,4c0.5-0.5,1.1-0.5,1.7-0.5
	c0.8,0.1,1.4,0.7,1.4,1.5c0,1.3,0,2.6,0,3.9C86.6,9,86,9,85.5,8.9C85.2,7.6,85.8,6.2,85.1,4.9z"/>
<path fill="#88BC45" d="M62.6,5.7c-0.6,0-1.1,0-1.6,0c-0.2-0.2-0.2-0.6-0.5-0.8c-1-0.3-1.3,0-1.4,1c0,0.3,0,0.5,0,0.8
	c0,1,0.4,1.3,1.4,1c0.2-0.2,0.2-0.5,0.4-0.7c0.5-0.1,1-0.1,1.5,0c0.1,1.1-0.6,2-1.8,2.2c-0.4,0-0.8,0-1.3,0c-1.2-0.1-2-1-2-2.2
	c0-0.2,0-0.4,0-0.6c-0.2-2.4,2-3.3,4-2.5C62.2,4.1,62.6,4.7,62.6,5.7z"/>
<path fill="#FFFFFF" d="M30.7,6.5c-1.4,0-2.7,0-4.1,0c0,1.1,0.2,1.5,1,1.7c1,0.3,1.7,0,2.2-1c0.2-0.1,0.4-0.1,0.6,0
	c0.1,0.1,0.1,0.2,0.1,0.2c-0.2,0.9-0.7,1.4-1.6,1.5c-0.2,0-0.5,0-0.7,0c-2.1,0.1-2.7-1.2-2.8-2.7c0-0.2,0-0.4,0-0.6
	c0.2-2,1.3-2.8,3.7-2.4c0.7,0.1,1.1,0.6,1.3,1.2C30.7,5.2,30.8,5.8,30.7,6.5z M29.6,5.7c0.1-1.1-0.3-1.5-1.2-1.6
	c-0.8-0.1-1.8,0.2-1.8,1.6C27.6,5.7,28.6,5.7,29.6,5.7z"/>
<path fill="#FFFFFF" d="M12.5,5.5c0.2-0.5,0.2-0.9-0.2-1.2c-0.7-0.2-1.4-0.2-1.9,0C10,4.6,10.1,4.9,9.9,5.1C9.6,5.2,9.4,5.2,9.2,5.2
	c-0.1-0.9,0.1-1.4,1-1.7c0.7-0.2,1.3-0.2,2-0.1c0.9,0.1,1.3,0.5,1.4,1.4c0.1,0.8,0,1.5,0,2.3c0,0.3,0,0.6,0,0.9
	c0.1,0.3,0.4,0.2,0.5,0.3c0.1,0.2,0.1,0.4,0,0.6c-0.6,0-1.1,0.1-1.4-0.6c-0.7,0.9-1.6,0.8-2.5,0.7C9.4,9,9,8.6,8.9,7.9
	C8.7,7,9,6.5,9.6,6.2c0.5-0.3,1.1-0.4,1.6-0.4C11.6,5.7,12,5.6,12.5,5.5z M9.9,6.9c-0.1,0.4-0.1,0.7,0,1c0.7,0.5,1.4,0.5,2,0.1
	c0.7-0.5,0.7-1.2,0.6-1.9C11.7,6.5,10.7,6.3,9.9,6.9z"/>
<path fill="#88BC45" d="M69.6,5.1C69.4,4.8,69.1,5,69,4.8c-0.1-0.3-0.1-0.7,0-1c0.2-0.2,0.5,0,0.6-0.3c0-0.4,0-0.8,0.1-1.3
	c0.5,0,1,0,1.6,0c0.2,0.4,0,0.9,0.2,1.4c0.3,0.2,0.7,0,1,0.2c0.2,0.3,0,0.7,0.1,1c-0.3,0.2-0.7,0-1.1,0.2c-0.1,0.8-0.1,1.6,0,2.3
	c0.3,0.4,0.7,0.2,1,0.3c0.2,0.4,0.1,0.8,0.1,1.2c-0.6,0.3-1.2,0.3-1.9,0.2c-0.6-0.1-1-0.6-1-1.3C69.6,6.8,69.6,5.9,69.6,5.1z"/>
<path fill="#FFFFFF" d="M19.2,8.9c-0.3,0.1-0.6,0.1-0.9,0c0-0.7,0-1.4,0-2.2c0-0.4,0-0.8,0-1.3c0-1-0.3-1.3-1-1.3
	c-0.9-0.1-1.6,0.4-1.7,1.3c-0.1,0.7,0,1.5,0,2.2c0,0.4,0,0.8,0,1.3C15.3,9,15,9,14.7,8.9c0-1.8,0-3.5,0-5.3c0.3-0.2,0.6-0.1,0.8-0.1
	c0.2,0.1,0,0.3,0.2,0.5c0.6-0.7,1.4-0.7,2.2-0.6c0.9,0.1,1.3,0.5,1.4,1.4C19.3,6.1,19.2,7.5,19.2,8.9z"/>
<path fill="#FFFFFF" d="M25,5.1c-0.3,0.1-0.6,0.1-0.8,0c-0.5-1-0.9-1.2-1.8-1.1c-0.7,0.1-1.1,0.5-1.3,1.2c-0.1,0.5-0.2,1-0.1,1.5
	c0.2,1.4,1.5,2.1,2.7,1.3c0.1,0,0.1-0.1,0.2-0.2c0.1-0.3,0.2-0.5,0.2-0.8C24.4,7,24.7,7,25,7.1c0,1-0.4,1.6-1.3,1.9
	c-0.8,0.2-1.6,0.2-2.3,0c-0.8-0.3-1.1-0.9-1.3-1.7c-0.1-0.7-0.1-1.4,0-2c0.2-1,0.8-1.6,1.8-1.8c0.5-0.1,1.1-0.1,1.6,0
	C24.4,3.5,24.8,4,25,5.1z"/>
<path fill="#FFFFFF" d="M3,4.5C2.8,4.2,2.5,4.4,2.3,4.2C2.2,4,2.2,3.8,2.2,3.6c0.2-0.3,0.5,0,0.7-0.2c0.2-1.9,0.4-2.1,1.9-2
	C5,1.6,4.9,1.8,4.9,2.1C4.6,2.3,4.2,2,4,2.4C3.9,2.7,3.9,3,4,3.4c0.3,0.2,0.6,0,0.9,0.2C5,3.8,4.9,4,4.9,4.2c-0.3,0.2-0.6,0-1,0.2
	c0,1.5,0,3,0,4.5C3.6,9,3.3,9,3,8.9C3,7.4,3,5.9,3,4.5z"/>
<path fill="#88BC45" d="M73.4,3.7c0.8-0.2,0.9-0.2,1.6,0c0,1.7,0,3.4,0,5.2C74.5,9,74,9,73.4,8.9C73.4,7.2,73.4,5.5,73.4,3.7z"/>
<path fill="#FFFFFF" d="M8.6,3.4c0.1,0.3,0.1,0.5,0,0.8c-0.2,0-0.5,0-0.7,0.1C6.9,4.3,6.5,4.8,6.5,5.7c0,0.9,0,1.9,0,2.8
	c0,0.1,0,0.3,0,0.4C6.1,9,5.9,8.9,5.5,9c0-1.8,0-3.6,0-5.4c0.3-0.1,0.5-0.1,0.7-0.1C6.5,3.6,6.4,3.8,6.5,4C7,3.3,7.7,3.2,8.6,3.4z"
	/>
<path fill="#88BC45" d="M75.2,2.2c-0.3,0.8-0.6,1.1-1.2,1c-0.5-0.1-0.8-0.5-0.8-0.9c0-0.4,0.3-0.9,0.8-1C74.6,1.2,74.9,1.4,75.2,2.2
	z"/>
<path fill="#88BC45" d="M42.4,3c-0.3,0-0.6,0.1-0.9,0c0-0.6,0.4-1.1,0.7-1.6c0.5,0,1,0,1.6,0C43.4,2,42.9,2.4,42.4,3z"/>
</svg>
