<svg xmlns="http://www.w3.org/2000/svg" width="115.489" height="27.378"><path fill="#fff" d="M6.581 18.371c-.258 0-.298-.199-.298-.338.159-2.365.239-4.812.279-7.019-.895-.218-1.67-.656-2.167-1.451 0 0-.477-.656-.577-.735-.08-.04-.119-.12-.119-.199l.06-.159v-.04c-.08-.159-.119-.239-.119-.298l.08-.08c.099 0 .238.08.358.12.835.278 1.67.477 2.505.616.02-.974.02-1.889.02-2.664 0-1.63 0-2.744.02-3.002 0-.119.04-.219.159-.239.199-.02 1.65-.099 1.65-.099.02 0 .139.02.139.08 0 .497-.338 1.63-.557 6.064.278.02.537.02.795.02 3.4 0 6.104-1.352 6.104-4.235 0-2.386-2.744-3.42-5.805-3.42-3.857 0-8.192 1.65-8.192 4.414l.06.437c0 .08-.04.14-.08.14l-.139-.1h-.22c-.258-.06-.537-.299-.537-.796 0-2.803 5.349-5.209 10.021-5.209 3.599 0 6.8 1.431 6.8 5.249 0 2.863-2.525 5.865-7.158 5.865-.557 0-1.153 0-1.73-.04-.06 1.73-.08 3.817-.08 6.362-1.152.557-1.133.756-1.272.756zm8.767-.418c-.218 0-.477-.039-.477-.198l.04-.119c1.113-1.452 1.988-3.997 2.207-5.726-.437-.417-.656-1.153-.656-1.829 0-.815.318-1.551.934-1.551.597 0 .736.417.736.915l-.099 1.292c0 .338.04.478.179.478.1 0 .239-.08.438-.199.696-.457 1.75-1.57 1.909-1.57.258 0 .656.517.656.795 0 .14-.06.259-.06.259-.557 1.113-1.133 3.122-1.133 4.115 0 1.055.338 1.71.795 1.71.397 0 .875-.497 1.312-1.649.06-.14.02-.219.278-.398l.119-.06.06.079-.02.1c-.139 1.174-.895 3.381-2.425 3.381-1.094 0-1.412-1.134-1.412-2.406s.318-2.684.497-3.34c-.318.159-.756.239-1.173.239l-.298-.02c-.159 1.61-1.232 4.354-2.107 5.647-.002.036-.141.055-.3.055zm13.44-6.7c.219 0 .438 0 .656-.02.06-.099.099-.258.099-.338 0 0 .179-.438.736-9.543 0-.099 0-.199.04-.199.1 0 .159 0 .219.06.159.239.736 1.074.935 1.292.119.139.179.278.179.457l-.02.219c-.397 2.744-.736 5.428-1.034 7.913.656-.08 1.292-.199 1.909-.238.537 0 1.093.596 1.471 1.153.099.14.437.08.437.259 0 .06-.02.139-.119.179-.318.159-1.889.278-2.883.278l-.497-.02c-.159 0-.179.179-.179.179 1.093 1.77 1.67 5.169 1.67 8.212 0 3.34-.696 6.282-2.127 6.282-1.511 0-1.968-1.511-1.968-3.679 0-3.141.954-7.693 1.034-10.935 0 0-.02-.378-.318-.417-.537-.08-.915-.159-1.173-.239.02.199.02.397.02.597 0 2.246-1.193 4.771-2.923 4.771-1.77 0-2.505-1.61-2.505-3.439 0-2.426 1.292-5.269 3.181-5.269 1.531 0 1.65 1.074 1.65 1.452v.139c-.318-.139-.616-.199-.895-.199-1.729 0-2.565 2.445-2.565 4.394 0 1.292.358 2.347 1.074 2.347.935 0 1.591-1.929 1.591-3.559 0-.955-.219-1.79-.736-2.088 0 0 .656-.338 1.113-.497.994.457 1.451.496 1.928.496zm1.432 3.241c-.497 4.613-.775 8.152-.775 9.385 0 1.689.139 2.405.318 2.405.398 0 1.133-3.996 1.133-7.515 0-1.73-.179-3.34-.676-4.275zm14.254 3.5c.08-.18.119-.239.159-.239.04 0 .06.079.06.14v.059l.119.08c-.139 1.312-1.113 2.028-2.187 2.028-1.829 0-2.982-1.551-3.619-3.778-.815 1.094-1.69 1.69-2.425 1.69-.994 0-1.75-1.073-1.75-3.439 0-1.73.298-3.639.497-4.494 0 0 .079-.258.238-.258.338 0 .676-.02 1.213-.139.239 0 .239.159.239.159-.517 2.883-.795 4.036-.795 6.024 0 .915.278 1.293.696 1.293.537 0 1.292-.637 1.909-1.551-.338-1.451-.477-3.122-.477-4.812 0-5.25 1.371-10.757 2.843-10.757.915 0 1.292 1.213 1.292 3.022 0 1.212-.676 7.833-2.644 11.85.457 2.386 1.412 4.155 3.122 4.155.596 0 1.192-.278 1.51-1.033zm-6.442-12.665c0 .755-.577 1.71-1.272 1.71-.636 0-.915-.477-.915-1.014 0-.735.517-1.61 1.312-1.61.637-.001.875.417.875.914zm3.082-3.36c-.756 0-1.63 4.314-1.63 8.609 0 1.113.04 2.227.179 3.26 1.412-3.658 1.909-9.344 1.909-10.199-.001-1.035-.14-1.67-.458-1.67zm20.637 1.252c0 .775-.259 1.133-.717 1.709-.397.497-1.491 1.849-1.491 1.849s-.159.159-.338.159c-.517 0-1.094-1.61-1.094-2.028 0-.636.716-1.292.716-1.292s.616-.596.716-.795c0-.139-.835-.219-1.61-.219-4.215 0-10.617 3.798-10.617 8.45 0 3.678 4.036 5.149 6.958 5.149 3.062 0 5.707-1.571 7.138-3.579l.08-.02c.179 0 .218.318.218.318s-.338.497-.338.557c0 .159.318.258.318.397l-.06.179c-.915 2.068-4.155 4.275-8.072 4.275-4.991 0-7.436-3.877-7.436-8.033 0-3.937 4.493-9.743 11.114-9.743 2.069.003 4.515 1.395 4.515 2.667zm6.977 6.462l-.039.199c-.14.437-.478 2.664-.478 4.434 0 1.272.238 2.247.735 2.247.259 0 .576-.259.975-.855.06-.1.219-.338.278-.338l.02.06-.02.179-.021.08.04.179c0 .198-.755 1.729-1.789 1.729-1.253 0-1.69-1.451-1.71-3.141-.576 1.53-1.432 3.498-2.506 3.498-1.093 0-1.431-1.551-1.431-3.32 0-1.849.378-3.956.636-4.811 0 0 .08-.258.238-.258.338 0 .677-.02 1.213-.139.239 0 .239.159.239.159 0 .219-.896 2.505-.896 6.124 0 .775.14 1.094.379 1.094.557 0 1.609-1.889 2.146-3.4.1-1.531.457-3.082.795-3.778.12-.238.26-.378.438-.378.261-.002.758.257.758.436zm2.922.099c.338 0 .677-.02 1.213-.139.239 0 .239.159.239.159-.517 2.883-.796 4.036-.796 6.024 0 .676.18.915.438.915.438 0 1.074-.716 1.293-1.233.039-.059.119-.119.179-.119s.1.04.1.119v.04c-.219 1.134-1.054 2.167-2.009 2.167-1.113 0-1.451-1.451-1.451-3.121 0-1.73.357-3.678.557-4.553-.001 0 .079-.259.237-.259zm2.466-4.453c0 .755-.576 1.71-1.272 1.71-.637 0-.914-.477-.914-1.014 0-.735.517-1.61 1.312-1.61.635-.001.874.417.874.914zm3.638 3.479c.795 0 1.392.616 1.491 1.968l.039.318c0 .636-.517 1.114-1.192 1.114-.418 0-.577-.159-.577-.259l.061-.06c.158-.02.517-.775.517-1.232 0-.159-.04-.278-.14-.318-1.073.08-2.227 2.445-2.227 4.314 0 1.511.835 2.306 1.61 2.306.716 0 1.392-.655 1.392-1.968 0-.417-.079-.874-.238-1.372 0-.02 0-.12.238-.12.577 0 1.014.875 1.014 1.829 0 1.71-1.093 2.565-2.306 2.565-1.451 0-3.062-1.232-3.062-3.658.001-2.505 1.471-5.427 3.38-5.427zm9.006.875l-.04.199c-.139.437-.477 2.664-.477 4.434 0 1.272.238 2.247.735 2.247.259 0 .577-.259.974-.855.061-.1.219-.338.279-.338l.02.06-.02.179-.021.08.04.179c0 .198-.756 1.729-1.789 1.729-1.253 0-1.69-1.451-1.711-3.141-.576 1.53-1.431 3.498-2.504 3.498-1.094 0-1.432-1.551-1.432-3.32 0-1.849.377-3.956.636-4.811 0 0 .079-.258.238-.258.339 0 .677-.02 1.213-.139.239 0 .239.159.239.159 0 .219-.895 2.505-.895 6.124 0 .775.139 1.094.377 1.094.557 0 1.61-1.889 2.147-3.4.1-1.531.457-3.082.796-3.778.119-.238.258-.378.437-.378.261-.002.758.257.758.436zm2.922.099c.339 0 .677-.02 1.213-.139.239 0 .239.159.239.159-.518 2.883-.796 4.036-.796 6.024 0 .676.179.915.438.915.438 0 1.073-.716 1.292-1.233.04-.059.119-.119.18-.119.059 0 .1.04.1.119v.04c-.219 1.134-1.055 2.167-2.009 2.167-1.113 0-1.451-1.451-1.451-3.121 0-1.73.358-3.678.557-4.553-.001 0 .078-.259.237-.259zm2.466-4.453c0 .755-.576 1.71-1.272 1.71-.637 0-.915-.477-.915-1.014 0-.735.518-1.61 1.312-1.61.637-.001.875.417.875.914zm2.088-.995c.039-.04.119-.119.218-.119l.079.02c.438.298 1.373.259 1.373.696-.18.975-.418 2.008-.637 3.102.676-.02 1.392-.04 2.088-.1l.576-3.559v-.04c.04-.04.119-.119.219-.119l.08.02c.438.298 1.371.259 1.371.696-.158.915-.377 1.869-.596 2.883 2.266-.179 4.175-.417 4.473-.417.239 0 .577 0 .577.159 0 .139-.239.139-.298.238-.14.219-.18.378-.18.378-.258.119-2.405.438-4.791.735-.398 1.969-.717 4.215-.717 6.919 0 .617.279.935.617.935.377 0 .854-.397 1.113-1.253.02-.059.1-.119.179-.119.06 0 .1.04.1.119v.04c-.278 1.491-.954 2.147-1.65 2.147-1.213 0-1.61-1.71-1.61-3.917 0-1.471.159-3.141.378-4.692-.756.099-1.491.159-2.187.238-.358 1.869-.637 3.997-.637 6.501 0 .617.278.935.616.935.378 0 .854-.397 1.113-1.253.021-.059.1-.119.179-.119.061 0 .1.04.1.119v.04c-.278 1.491-.954 2.147-1.65 2.147-1.213 0-1.61-1.71-1.61-3.917 0-1.352.14-2.883.318-4.334-.497.04-.935.06-1.253.06-1.054 0-1.551-.338-1.551-1.412 0-.179.061-.477.18-.477l.119.079c.557.239 1.551.338 2.703.358.299-1.889.598-3.4.598-3.678v-.039zm14.771 7.695c-.318.159-.756.239-1.174.239l-.238-.02c-.278 2.087-1.232 5.528-3.957 5.528-1.232 0-2.385-.955-2.941-3.32l-.239-.021c-.119-.021-.04-.219-.259-.457l-.039-.06c0-.08.139-.179.238-.179l.299.06c.119-2.406 1.332-4.911 3.181-4.911.875 0 1.372.775 1.372 1.789 0 1.352-.895 3.122-2.982 3.917.158 1.908.854 2.604 1.689 2.604 1.988 0 2.783-2.804 3.082-5.189-.537-.397-.795-1.193-.795-1.928 0-.815.318-1.551.934-1.551.598 0 .736.417.736.915l-.1 1.292c0 .338.04.478.18.478.099 0 .238-.08.437-.199.696-.457 1.75-1.57 1.909-1.57.258 0 .656.517.656.795 0 .517-.358 1.094-.796 1.452-.079.537-.099 1.074-.099 1.571 0 1.689.438 3.102 1.809 3.102 1.014 0 1.949-.656 2.625-1.133.238-.18.695-.498.875-.498l.079.061c0 .1-.12.338-.438.775l.079.397c-.895 1.649-2.107 2.445-3.181 2.445-1.77 0-2.982-1.77-2.982-4.752 0-.517.04-1.054.1-1.63h-.06zm-6.759 1.73c1.432-.517 2.027-1.949 2.027-2.883 0-.478-.159-.835-.457-.835-.895 0-1.531 1.948-1.57 3.718z"/></svg>