<svg xmlns="http://www.w3.org/2000/svg" width="97.317" height="19.524"><path fill="#2A81BA" d="M43.579 3.658c0 .775-.259 1.133-.716 1.709-.398.497-1.491 1.849-1.491 1.849s-.159.159-.338.159c-.517 0-1.094-1.61-1.094-2.028 0-.636.716-1.292.716-1.292s.616-.596.716-.795c0-.139-.835-.219-1.61-.219-4.215 0-10.617 3.798-10.617 8.45 0 3.679 4.036 5.149 6.958 5.149 3.062 0 5.707-1.57 7.138-3.578l.08-.021c.179 0 .219.318.219.318s-.338.497-.338.557c0 .159.318.259.318.397l-.06.179c-.915 2.067-4.155 4.274-8.072 4.274-4.991 0-7.436-3.877-7.436-8.032 0-3.937 4.493-9.743 11.114-9.743 2.067.003 4.513 1.395 4.513 2.667zm6.977 6.462l-.04.199c-.139.438-.477 2.664-.477 4.434 0 1.272.238 2.246.735 2.246.259 0 .577-.258.975-.854.06-.1.219-.338.278-.338l.02.06-.02.179-.02.079.039.18c0 .199-.756 1.729-1.789 1.729-1.253 0-1.69-1.451-1.71-3.142-.577 1.531-1.432 3.5-2.505 3.5-1.093 0-1.431-1.551-1.431-3.32 0-1.85.377-3.957.636-4.812 0 0 .079-.258.238-.258.338 0 .676-.02 1.213-.139.239 0 .239.159.239.159 0 .219-.895 2.505-.895 6.124 0 .775.139 1.094.378 1.094.557 0 1.61-1.89 2.147-3.399.099-1.531.457-3.082.795-3.778.12-.238.259-.378.438-.378.259-.003.756.256.756.435zm2.923.099c.338 0 .676-.02 1.213-.139.238 0 .238.159.238.159-.518 2.882-.795 4.036-.795 6.024 0 .677.178.915.438.915.437 0 1.072-.716 1.291-1.232.041-.061.12-.119.18-.119s.1.039.1.119v.039c-.219 1.133-1.055 2.168-2.008 2.168-1.113 0-1.452-1.452-1.452-3.122 0-1.729.358-3.679.557-4.553-.001 0 .078-.259.238-.259zm2.465-4.453c0 .755-.576 1.71-1.272 1.71-.636 0-.915-.477-.915-1.014 0-.735.518-1.61 1.312-1.61.637-.001.875.417.875.914zm3.639 3.479c.795 0 1.392.616 1.49 1.968l.041.318c0 .636-.518 1.113-1.193 1.113-.418 0-.576-.159-.576-.259l.059-.06c.16-.02.518-.775.518-1.232 0-.159-.04-.278-.139-.318-1.074.08-2.228 2.445-2.228 4.314 0 1.512.835 2.307 1.61 2.307.716 0 1.393-.656 1.393-1.969 0-.418-.08-.875-.239-1.371 0-.021 0-.12.239-.12.576 0 1.014.875 1.014 1.829 0 1.71-1.094 2.564-2.307 2.564-1.451 0-3.062-1.232-3.062-3.658-.001-2.504 1.47-5.426 3.38-5.426zm9.005.875l-.04.199c-.14.438-.478 2.664-.478 4.434 0 1.272.239 2.246.736 2.246.258 0 .576-.258.975-.854.059-.1.219-.338.277-.338l.021.06-.021.179-.02.079.04.18c0 .199-.756 1.729-1.79 1.729-1.252 0-1.689-1.451-1.709-3.142-.577 1.531-1.432 3.5-2.506 3.5-1.094 0-1.432-1.551-1.432-3.32 0-1.85.378-3.957.637-4.812 0 0 .08-.258.238-.258.338 0 .676-.02 1.213-.139.238 0 .238.159.238.159 0 .219-.895 2.505-.895 6.124 0 .775.14 1.094.378 1.094.557 0 1.61-1.89 2.147-3.399.1-1.531.457-3.082.795-3.778.119-.238.259-.378.438-.378.261-.003.758.256.758.435zm2.922.099c.338 0 .676-.02 1.213-.139.238 0 .238.159.238.159-.517 2.882-.795 4.036-.795 6.024 0 .677.18.915.438.915.438 0 1.074-.716 1.293-1.232.039-.061.119-.119.178-.119.061 0 .1.039.1.119v.039c-.219 1.133-1.053 2.168-2.008 2.168-1.113 0-1.451-1.452-1.451-3.122 0-1.729.357-3.679.557-4.553-.001 0 .079-.259.237-.259zm2.465-4.453c0 .755-.576 1.71-1.271 1.71-.637 0-.915-.477-.915-1.014 0-.735.517-1.61 1.312-1.61.636-.001.874.417.874.914zm2.088-.995c.04-.04.119-.119.219-.119l.08.02c.438.298 1.371.259 1.371.696-.179.975-.417 2.008-.636 3.102.676-.02 1.392-.04 2.087-.1l.577-3.559v-.04c.04-.04.12-.119.219-.119l.079.02c.438.298 1.373.259 1.373.696-.16.915-.379 1.869-.598 2.883 2.268-.179 4.176-.417 4.475-.417.238 0 .576 0 .576.159 0 .139-.238.139-.299.238-.139.219-.179.378-.179.378-.259.119-2.405.438-4.792.735-.396 1.969-.715 4.215-.715 6.919 0 .616.277.935.616.935.378 0 .854-.397 1.113-1.252.021-.061.099-.119.179-.119.06 0 .1.039.1.119v.039c-.278 1.491-.955 2.147-1.65 2.147-1.213 0-1.61-1.71-1.61-3.917 0-1.471.159-3.141.378-4.692-.756.099-1.491.159-2.188.238-.357 1.87-.636 3.997-.636 6.501 0 .616.278.935.616.935.378 0 .855-.397 1.113-1.252.02-.061.1-.119.18-.119.059 0 .099.039.099.119v.039c-.278 1.491-.954 2.147-1.649 2.147-1.213 0-1.611-1.71-1.611-3.917 0-1.352.139-2.883.318-4.334-.497.04-.935.06-1.252.06-1.055 0-1.552-.338-1.552-1.412 0-.179.06-.477.179-.477l.119.079c.557.239 1.551.338 2.705.358.298-1.889.596-3.4.596-3.678v-.039zm14.771 7.694c-.317.16-.755.239-1.172.239l-.239-.021c-.278 2.088-1.232 5.527-3.956 5.527-1.232 0-2.387-.954-2.943-3.32l-.238-.02c-.119-.02-.039-.219-.258-.457l-.041-.06c0-.08.14-.179.239-.179l.298.059c.119-2.405 1.332-4.91 3.182-4.91.875 0 1.371.775 1.371 1.789 0 1.352-.895 3.121-2.981 3.917.159 1.909.854 2.604 1.69 2.604 1.988 0 2.783-2.803 3.081-5.189-.536-.397-.796-1.193-.796-1.928 0-.815.318-1.551.936-1.551.596 0 .735.417.735.915l-.1 1.292c0 .339.04.478.179.478.1 0 .238-.08.438-.199.696-.457 1.75-1.57 1.908-1.57.26 0 .656.517.656.795 0 .518-.357 1.094-.795 1.451-.079.537-.1 1.074-.1 1.571 0 1.69.438 3.102 1.81 3.102 1.015 0 1.948-.656 2.624-1.134.239-.179.696-.496.875-.496l.08.059c0 .1-.119.338-.438.775l.08.398c-.896 1.65-2.108 2.445-3.182 2.445-1.77 0-2.982-1.77-2.982-4.752 0-.518.039-1.054.1-1.631h-.061zm-6.759 1.731c1.432-.518 2.028-1.949 2.028-2.883 0-.478-.159-.835-.457-.835-.896 0-1.531 1.948-1.571 3.718z"/><path fill="#fff" d="M43.579 2.664c0 .775-.259 1.133-.716 1.71-.398.497-1.491 1.849-1.491 1.849s-.159.159-.338.159c-.517 0-1.094-1.61-1.094-2.028 0-.636.716-1.292.716-1.292s.616-.596.716-.795c0-.139-.835-.219-1.61-.219-4.215 0-10.617 3.797-10.617 8.45 0 3.679 4.036 5.149 6.958 5.149 3.062 0 5.707-1.57 7.138-3.578l.08-.021c.179 0 .219.318.219.318s-.338.497-.338.557c0 .159.318.259.318.397l-.06.18c-.915 2.067-4.155 4.273-8.072 4.273-4.991 0-7.436-3.877-7.436-8.032 0-3.936 4.493-9.741 11.114-9.741 2.067 0 4.513 1.392 4.513 2.664zm6.977 6.462l-.04.199c-.139.438-.477 2.664-.477 4.434 0 1.272.238 2.246.735 2.246.259 0 .577-.258.975-.854.06-.099.219-.338.278-.338l.02.06-.02.18-.02.079.039.179c0 .199-.756 1.73-1.789 1.73-1.253 0-1.69-1.452-1.71-3.143-.577 1.531-1.432 3.5-2.505 3.5-1.093 0-1.431-1.551-1.431-3.32 0-1.85.377-3.957.636-4.812 0 0 .079-.259.238-.259.338 0 .676-.02 1.213-.139.239 0 .239.159.239.159 0 .219-.895 2.505-.895 6.124 0 .775.139 1.094.378 1.094.557 0 1.61-1.889 2.147-3.399.099-1.531.457-3.082.795-3.778.12-.238.259-.377.438-.377.259-.003.756.256.756.435zm2.923.099c.338 0 .676-.02 1.213-.139.238 0 .238.159.238.159-.518 2.882-.795 4.037-.795 6.025 0 .676.178.914.438.914.437 0 1.072-.716 1.291-1.232.041-.061.12-.119.18-.119s.1.039.1.119v.039c-.219 1.134-1.055 2.168-2.008 2.168-1.113 0-1.452-1.452-1.452-3.122 0-1.729.358-3.678.557-4.553-.001 0 .078-.259.238-.259zm2.465-4.454c0 .755-.576 1.71-1.272 1.71-.636 0-.915-.477-.915-1.014 0-.735.518-1.61 1.312-1.61.637 0 .875.417.875.914zm3.639 3.48c.795 0 1.392.616 1.49 1.968l.041.318c0 .637-.518 1.113-1.193 1.113-.418 0-.576-.159-.576-.259l.059-.06c.16-.02.518-.775.518-1.232 0-.159-.04-.278-.139-.318-1.074.08-2.228 2.445-2.228 4.314 0 1.512.835 2.307 1.61 2.307.716 0 1.393-.656 1.393-1.969 0-.418-.08-.875-.239-1.371 0-.021 0-.119.239-.119.576 0 1.014.874 1.014 1.828 0 1.71-1.094 2.565-2.307 2.565-1.451 0-3.062-1.233-3.062-3.659-.001-2.503 1.47-5.426 3.38-5.426zm9.005.875l-.04.199c-.14.438-.478 2.664-.478 4.434 0 1.272.239 2.246.736 2.246.258 0 .576-.258.975-.854.059-.099.219-.338.277-.338l.021.06-.021.18-.02.079.04.179c0 .199-.756 1.73-1.79 1.73-1.252 0-1.689-1.452-1.709-3.143-.577 1.531-1.432 3.5-2.506 3.5-1.094 0-1.432-1.551-1.432-3.32 0-1.85.378-3.957.637-4.812 0 0 .08-.259.238-.259.338 0 .676-.02 1.213-.139.238 0 .238.159.238.159 0 .219-.895 2.505-.895 6.124 0 .775.14 1.094.378 1.094.557 0 1.61-1.889 2.147-3.399.1-1.531.457-3.082.795-3.778.119-.238.259-.377.438-.377.261-.003.758.256.758.435zm2.922.099c.338 0 .676-.02 1.213-.139.238 0 .238.159.238.159-.517 2.882-.795 4.037-.795 6.025 0 .676.18.914.438.914.438 0 1.074-.716 1.293-1.232.039-.061.119-.119.178-.119.061 0 .1.039.1.119v.039c-.219 1.134-1.053 2.168-2.008 2.168-1.113 0-1.451-1.452-1.451-3.122 0-1.729.357-3.678.557-4.553-.001 0 .079-.259.237-.259zm2.465-4.454c0 .755-.576 1.71-1.271 1.71-.637 0-.915-.477-.915-1.014 0-.735.517-1.61 1.312-1.61.636 0 .874.417.874.914zm2.088-.994c.04-.04.119-.119.219-.119l.08.02c.438.298 1.371.258 1.371.696-.179.974-.417 2.008-.636 3.102.676-.02 1.392-.04 2.087-.1l.577-3.559v-.04c.04-.04.12-.119.219-.119l.079.02c.438.298 1.373.258 1.373.696-.16.915-.379 1.869-.598 2.883 2.268-.179 4.176-.417 4.475-.417.238 0 .576 0 .576.159 0 .139-.238.139-.299.238-.139.219-.179.378-.179.378-.259.119-2.405.438-4.792.735-.396 1.969-.715 4.215-.715 6.92 0 .615.277.934.616.934.378 0 .854-.397 1.113-1.252.021-.061.099-.119.179-.119.06 0 .1.039.1.119v.039c-.278 1.491-.955 2.147-1.65 2.147-1.213 0-1.61-1.71-1.61-3.917 0-1.471.159-3.141.378-4.692-.756.1-1.491.159-2.188.239-.357 1.869-.636 3.996-.636 6.502 0 .615.278.934.616.934.378 0 .855-.397 1.113-1.252.02-.061.1-.119.18-.119.059 0 .099.039.099.119v.039c-.278 1.491-.954 2.147-1.649 2.147-1.213 0-1.611-1.71-1.611-3.917 0-1.352.139-2.883.318-4.334-.497.04-.935.06-1.252.06-1.055 0-1.552-.338-1.552-1.412 0-.179.06-.477.179-.477l.119.08c.557.238 1.551.338 2.705.358.298-1.889.596-3.4.596-3.678v-.041zm14.771 7.694c-.317.16-.755.239-1.172.239l-.239-.021c-.278 2.088-1.232 5.527-3.956 5.527-1.232 0-2.387-.953-2.943-3.32l-.238-.02c-.119-.02-.039-.219-.258-.457l-.041-.06c0-.079.14-.179.239-.179l.298.059c.119-2.405 1.332-4.91 3.182-4.91.875 0 1.371.775 1.371 1.789 0 1.352-.895 3.121-2.981 3.917.159 1.909.854 2.604 1.69 2.604 1.988 0 2.783-2.803 3.081-5.189-.536-.397-.796-1.192-.796-1.928 0-.815.318-1.551.936-1.551.596 0 .735.417.735.915l-.1 1.292c0 .338.04.477.179.477.1 0 .238-.08.438-.199.696-.458 1.75-1.571 1.908-1.571.26 0 .656.517.656.795 0 .517-.357 1.093-.795 1.451-.079.537-.1 1.074-.1 1.571 0 1.69.438 3.102 1.81 3.102 1.015 0 1.948-.656 2.624-1.134.239-.178.696-.496.875-.496l.08.059c0 .1-.119.339-.438.775l.08.398c-.896 1.65-2.108 2.445-3.182 2.445-1.77 0-2.982-1.77-2.982-4.752 0-.517.039-1.054.1-1.631h-.061zm-6.759 1.731c1.432-.518 2.028-1.948 2.028-2.883 0-.478-.159-.835-.457-.835-.896 0-1.531 1.948-1.571 3.718z"/><path fill="#2A81BA" d="M18.375 5.238c.334.016.649-.084.967-.157.41-.096.809-.231 1.198-.393.051-.021.099-.065.162-.034l-.003-.002c-.32.526-.735.976-1.17 1.405-.256.252-.529.482-.819.693-.079.056-.095.116-.093.204.052 1.66-.224 3.266-.831 4.809-1.165 2.962-3.121 5.218-6.008 6.616-1.259.608-2.595.946-3.986 1.082-1.82.177-3.593-.011-5.32-.614-.837-.293-1.632-.673-2.383-1.143l-.089-.094c2.289.221 4.353-.351 6.224-1.752-1.958-.173-3.265-1.156-3.979-2.992.642.105 1.244.105 1.868-.056-2.109-.639-3.221-2.039-3.366-4.265.617.312 1.22.509 1.922.536-.251-.191-.458-.36-.645-.555-.675-.7-1.075-1.53-1.188-2.499-.102-.876.058-1.699.457-2.481.087-.169.086-.168.206-.027 1.79 2.099 4.026 3.461 6.718 4.068.591.133 1.192.21 1.797.252.122.008.153-.005.129-.145-.421-2.329.988-4.486 3.295-4.987 1.472-.32 2.776.071 3.876 1.109.105.1.198.129.336.097.814-.189 1.587-.483 2.318-.888l.193-.101c-.332 1.011-.944 1.752-1.783 2.317l-.006.013.003-.016"/><path fill-rule="evenodd" clip-rule="evenodd" fill="#fff" d="M18.375 4.331c.334.016.649-.084.967-.157.41-.096.809-.231 1.198-.393.051-.021.099-.065.162-.034l-.003-.002c-.32.526-.735.976-1.17 1.405-.256.252-.529.482-.819.692-.079.056-.095.116-.093.204.052 1.66-.224 3.266-.831 4.809-1.165 2.962-3.121 5.218-6.008 6.616-1.259.609-2.595.947-3.986 1.082-1.82.177-3.593-.01-5.32-.614-.837-.293-1.632-.673-2.383-1.144l-.089-.093c2.289.222 4.353-.35 6.224-1.75-1.958-.174-3.265-1.156-3.979-2.994.642.106 1.244.106 1.868-.055-2.109-.639-3.221-2.039-3.366-4.265.617.312 1.22.509 1.922.536-.251-.191-.458-.36-.645-.555-.675-.7-1.075-1.53-1.188-2.5-.102-.875.058-1.698.457-2.48.087-.169.086-.168.206-.027 1.79 2.099 4.026 3.461 6.718 4.068.591.133 1.192.21 1.797.252.122.008.153-.005.129-.145-.421-2.329.988-4.486 3.295-4.987 1.472-.32 2.776.071 3.876 1.109.105.1.198.129.336.097.814-.189 1.587-.483 2.318-.888l.193-.101c-.332 1.011-.944 1.752-1.783 2.317l-.006.013.003-.016"/></svg>