<svg xmlns="http://www.w3.org/2000/svg" xmlns:xlink="http://www.w3.org/1999/xlink" width="145.659" height="18.64"><defs><rect id="a" width="145.659" height="18.64"/></defs><clipPath id="b"><use xlink:href="#a" overflow="visible"/></clipPath><text transform="translate(.651 14.158)" clip-path="url(#b)"><tspan x="0" y="0" fill="#964981" font-family="'ArdoisePtf-NarrowLight'" font-size="16.16">C</tspan><tspan x="8.92" y="0" fill="#964981" font-family="'ArdoisePtf-NarrowLight'" font-size="16.16">o</tspan><tspan x="17.21" y="0" fill="#964981" font-family="'ArdoisePtf-NarrowLight'" font-size="16.16">n</tspan><tspan x="26.308" y="0" fill="#964981" font-family="'ArdoisePtf-NarrowLight'" font-size="16.16">v</tspan><tspan x="33.595" y="0" fill="#964981" font-family="'ArdoisePtf-NarrowLight'" font-size="16.16">er</tspan><tspan x="47.169" y="0" fill="#964981" font-family="'ArdoisePtf-NarrowLight'" font-size="16.16">sat</tspan><tspan x="67.756" y="0" fill="#964981" font-family="'ArdoisePtf-NarrowLight'" font-size="16.16">ion S</tspan><tspan x="102.417" y="0" fill="#964981" font-family="'ArdoisePtf-NarrowLight'" font-size="16.16">k</tspan><tspan x="110.271" y="0" fill="#964981" font-family="'ArdoisePtf-NarrowLight'" font-size="16.16">o</tspan><tspan x="118.56" y="0" fill="#964981" font-family="'ArdoisePtf-NarrowLight'" font-size="16.16">u</tspan><tspan x="127.544" y="0" fill="#964981" font-family="'ArdoisePtf-NarrowLight'" font-size="16.16" letter-spacing="1">p</tspan><tspan x="136.577" y="0" fill="#964981" font-family="'ArdoisePtf-NarrowLight'" font-size="16.16">e</tspan></text><path clip-path="url(#b)" stroke="#964981" stroke-width="1.25" stroke-miterlimit="10" d="M8.069 13.674l.13-.712c-.712.389-1.503.582-2.312.582-2.537 0-3.603-1.843-3.603-4.864 0-3.135 1.114-4.88 3.312-4.88.501 0 .97.097 1.407.259l.162 1.874h.63v-2.294c-.55-.34-1.358-.599-2.247-.599-3.005 0-4.298 2.36-4.298 5.689 0 3.587 1.47 5.638 4.313 5.638 1.02 0 1.908-.291 2.506-.693z" fill="none"/><path clip-path="url(#b)" stroke="#964981" stroke-width="1.25" stroke-miterlimit="10" d="M15.47 10.005c0 2.489-.84 3.669-2.262 3.669-1.389 0-2.181-1.002-2.181-3.41 0-2.488.84-3.652 2.246-3.652 1.405 0 2.197.986 2.197 3.393zm.922-.032c0-2.957-1.213-4.056-3.104-4.056-1.938 0-3.182 1.341-3.182 4.379 0 2.942 1.212 4.073 3.102 4.073 1.939 0 3.184-1.375 3.184-4.396z" fill="none"/><path clip-path="url(#b)" stroke="#964981" stroke-width="1.25" stroke-miterlimit="10" d="M24.825 14.158v-5.543c0-1.002-.079-1.696-.742-2.214-.452-.339-1.002-.484-1.568-.484-.985 0-1.728.387-2.456.856h-.032l-.063-.646h-.744v8.031h.855v-6.738c.68-.42 1.294-.711 2.117-.711.533 0 .971.146 1.277.403.485.421.501 1.034.501 1.665v5.381h.855z" fill="none"/><path clip-path="url(#b)" stroke="#964981" stroke-width="1.25" stroke-miterlimit="10" d="M30.691 14.158l2.456-8.031h-.823l-1.454 4.896c-.195.662-.47 1.551-.663 2.326h-.017c-.178-.791-.451-1.68-.646-2.342l-1.471-4.88h-.903l2.456 8.031h1.065z" fill="none"/><path clip-path="url(#b)" stroke="#964981" stroke-width="1.25" stroke-miterlimit="10" d="M39.597 9.424h-3.863c.081-1.843.696-2.861 2.069-2.861 1.196 0 1.858.889 1.794 2.861zm.565 4.362l.081-.599c-.599.26-1.229.438-1.987.438-.824 0-1.358-.242-1.745-.613-.679-.695-.792-1.892-.792-2.926h4.718c.033-.21.033-.647.033-.857 0-2.229-1.02-3.312-2.7-3.312-1.971 0-2.972 1.518-2.972 4.138 0 3.119 1.195 4.313 3.23 4.313.792 0 1.65-.242 2.134-.582z" fill="none"/><path clip-path="url(#b)" stroke="#964981" stroke-width="1.25" stroke-miterlimit="10" d="M44.169 14.158v-6.69c.76-.42 1.31-.711 2.035-.711.211 0 .404.032.551.065l-.05-.792c-.192-.081-.371-.113-.549-.113-.631 0-1.293.404-2.004.856h-.032l-.063-.646h-.744v8.031h.856z" fill="none"/><path clip-path="url(#b)" stroke="#964981" stroke-width="1.25" stroke-miterlimit="10" d="M53.104 12.154c0-2.763-3.717-2.182-3.717-4.12 0-.938.582-1.406 1.632-1.406.582 0 1.164.096 1.648.274l-.047-.581c-.452-.275-1.115-.404-1.632-.404-1.52 0-2.456.792-2.456 2.181 0 2.618 3.717 1.987 3.717 4.088 0 1.114-.711 1.471-1.762 1.471-.647 0-1.391-.097-1.924-.274l.05.582c.597.307 1.404.403 2.019.403 1.439 0 2.472-.743 2.472-2.214z" fill="none"/><path clip-path="url(#b)" stroke="#964981" stroke-width="1.25" stroke-miterlimit="10" d="M60.667 14.158v-6.06c0-1.584-1.002-2.182-2.423-2.182-.858 0-1.665.259-2.15.582l-.081.598c.533-.227 1.195-.437 1.955-.437 1.229 0 1.844.501 1.844 1.584v1.649c-.566-.162-1.164-.259-1.746-.259-1.906 0-2.764.89-2.764 2.456 0 1.391.857 2.277 2.117 2.277.889 0 1.6-.371 2.393-.838h.031l.065.629h.759zm-.855-1.228c-.712.421-1.357.711-2.117.711-1.052 0-1.553-.727-1.553-1.632 0-1.147.614-1.728 2.103-1.728.564 0 1.065.08 1.567.225v2.424z" fill="none"/><path clip-path="url(#b)" stroke="#964981" stroke-width="1.25" stroke-miterlimit="10" d="M67.019 14.029l.097-.6c-.324.131-.679.211-.986.211-.808 0-1.146-.42-1.146-1.389v-5.413h1.971l.065-.711h-2.036v-1.922l-.857.178v1.745l-.84.113v.598h.84v5.589c0 1.311.566 1.94 1.697 1.94.466 0 .904-.145 1.195-.339z" fill="none"/><path clip-path="url(#b)" stroke="#964981" stroke-width="1.25" stroke-miterlimit="10" d="M70.686 14.158v-8.031h-.856v8.031h.856zm.049-10.988v-.97h-.953v.97h.953z" fill="none"/><path clip-path="url(#b)" stroke="#964981" stroke-width="1.25" stroke-miterlimit="10" d="M78.862 10.005c0 2.489-.84 3.669-2.262 3.669-1.389 0-2.181-1.002-2.181-3.41 0-2.488.84-3.652 2.246-3.652 1.405 0 2.197.986 2.197 3.393zm.922-.032c0-2.957-1.213-4.056-3.104-4.056-1.938 0-3.182 1.341-3.182 4.379 0 2.942 1.212 4.073 3.102 4.073 1.94 0 3.184-1.375 3.184-4.396z" fill="none"/><path clip-path="url(#b)" stroke="#964981" stroke-width="1.25" stroke-miterlimit="10" d="M88.218 14.158v-5.543c0-1.002-.079-1.696-.742-2.214-.452-.339-1.002-.484-1.568-.484-.985 0-1.728.387-2.456.856h-.032l-.063-.646h-.744v8.031h.855v-6.738c.68-.42 1.294-.711 2.117-.711.533 0 .971.146 1.277.403.485.421.501 1.034.501 1.665v5.381h.855z" fill="none"/><path clip-path="url(#b)" stroke="#964981" stroke-width="1.25" stroke-miterlimit="10" d="M101.517 11.395c0-3.604-4.557-2.827-4.557-5.591 0-1.163.63-1.971 2.052-1.971.81 0 1.487.209 2.068.5l-.128-.71c-.453-.307-1.229-.582-2.102-.582-1.713 0-2.827 1.05-2.827 2.86 0 3.458 4.557 2.731 4.557 5.559 0 1.246-.711 2.117-2.359 2.117-.76 0-1.534-.178-2.229-.5l.129.711c.646.388 1.438.582 2.262.582 1.89-.001 3.134-1.036 3.134-2.975z" fill="none"/><path clip-path="url(#b)" stroke="#964981" stroke-width="1.25" stroke-miterlimit="10" d="M108.466 11.33c-.354-.775-.76-1.293-1.438-1.535v-.016l2.634-3.652h-.954l-2.438 3.474c-.179-.016-.405-.016-.922-.016v-7.385l-.857.129v11.829h.857v-3.878h.694c.63 0 1.083.194 1.616 1.341l1.115 2.537h.954l-1.261-2.828z" fill="none"/><path clip-path="url(#b)" stroke="#964981" stroke-width="1.25" stroke-miterlimit="10" d="M116.9 10.005c0 2.489-.84 3.669-2.262 3.669-1.389 0-2.181-1.002-2.181-3.41 0-2.488.84-3.652 2.246-3.652 1.405 0 2.197.986 2.197 3.393zm.921-.032c0-2.957-1.212-4.056-3.103-4.056-1.938 0-3.182 1.341-3.182 4.379 0 2.942 1.212 4.073 3.102 4.073 1.94 0 3.183-1.375 3.183-4.396z" fill="none"/><path clip-path="url(#b)" stroke="#964981" stroke-width="1.25" stroke-miterlimit="10" d="M126 14.158v-8.031h-.856v6.738c-.664.404-1.261.729-2.053.729-.501 0-.921-.146-1.229-.42-.467-.422-.483-1.035-.483-1.666v-5.38h-.857v5.542c0 1.002.082 1.696.729 2.215.436.338.984.483 1.519.483.953 0 1.68-.403 2.391-.856h.032l.049.646h.758z" fill="none"/><path clip-path="url(#b)" stroke="#964981" stroke-width="1.25" stroke-miterlimit="10" d="M135.566 9.989c0-2.65-1.052-4.072-2.765-4.072-.855 0-1.583.404-2.31.856h-.033l-.063-.646h-.744v11.264l.855-.129v-3.362c.405.259 1.051.469 1.73.469 2.166-.001 3.33-1.617 3.33-4.38zm-.92.048c0 2.489-.986 3.62-2.587 3.62-.564 0-1.099-.146-1.552-.404v-5.833c.696-.42 1.262-.711 2.004-.711 1.261 0 2.135 1.05 2.135 3.328z" fill="none"/><path clip-path="url(#b)" stroke="#964981" stroke-width="1.25" stroke-miterlimit="10" d="M142.659 9.424h-3.863c.081-1.843.696-2.861 2.069-2.861 1.197 0 1.859.889 1.794 2.861zm.566 4.362l.081-.599c-.599.26-1.229.438-1.987.438-.824 0-1.358-.242-1.745-.613-.679-.695-.792-1.892-.792-2.926h4.718c.033-.21.033-.647.033-.857 0-2.229-1.02-3.312-2.7-3.312-1.971 0-2.972 1.518-2.972 4.138 0 3.119 1.195 4.313 3.23 4.313.792 0 1.649-.242 2.134-.582z" fill="none"/></svg>