<svg xmlns="http://www.w3.org/2000/svg" width="291" height="41"><path fill="#4890A8" d="M287.25 0h-283.5c-2.071 0-3.75 1.679-3.75 3.75v37.25h291v-37.25c0-2.071-1.679-3.75-3.75-3.75"/><path fill="#91C1D9" d="M126.419 13.909c0 .775-.259 1.134-.716 1.71l-1.491 1.85s-.159.158-.338.158c-.517 0-1.094-1.61-1.094-2.027 0-.637.716-1.293.716-1.293s.616-.596.716-.795c0-.139-.835-.219-1.61-.219-4.215 0-10.617 3.798-10.617 8.45 0 3.678 4.036 5.15 6.958 5.15 3.062 0 5.707-1.57 7.138-3.58l.079-.02c.179 0 .219.318.219.318s-.338.498-.338.557c0 .16.318.258.318.398l-.06.178c-.915 2.068-4.155 4.275-8.072 4.275-4.991 0-7.436-3.877-7.436-8.033 0-3.936 4.493-9.742 11.114-9.742 2.069.001 4.514 1.393 4.514 2.665zm6.977 6.462l-.04.199c-.139.438-.477 2.665-.477 4.434 0 1.271.238 2.246.735 2.246.259 0 .577-.258.975-.855.06-.1.219-.338.278-.338l.02.061-.02.178-.02.08.04.18c0 .197-.755 1.729-1.789 1.729-1.253 0-1.69-1.451-1.71-3.141-.577 1.531-1.432 3.5-2.505 3.5-1.093 0-1.431-1.551-1.431-3.32 0-1.85.377-3.957.636-4.812 0 0 .08-.259.238-.259.338 0 .676-.02 1.213-.14.239 0 .239.159.239.159 0 .219-.895 2.506-.895 6.124 0 .775.139 1.094.378 1.094.557 0 1.61-1.889 2.147-3.4.099-1.529.457-3.08.795-3.777.12-.238.259-.378.438-.378.259-.001.755.257.755.436zm2.923.1c.338 0 .676-.02 1.213-.14.239 0 .239.159.239.159-.517 2.883-.795 4.036-.795 6.024 0 .676.179.916.438.916.437 0 1.074-.717 1.292-1.234.04-.059.12-.119.179-.119s.1.041.1.119v.041c-.219 1.133-1.054 2.166-2.008 2.166-1.113 0-1.452-1.451-1.452-3.121 0-1.729.358-3.678.557-4.553-.002 0 .078-.258.237-.258zm2.465-4.454c0 .756-.577 1.71-1.272 1.71-.636 0-.915-.477-.915-1.014 0-.735.517-1.61 1.312-1.61.637 0 .875.417.875.914zm3.638 3.479c.795 0 1.392.616 1.491 1.969l.04.318c0 .635-.517 1.113-1.193 1.113-.417 0-.577-.16-.577-.26l.06-.059c.159-.02.517-.775.517-1.232 0-.16-.04-.279-.139-.318-1.074.078-2.227 2.445-2.227 4.314 0 1.51.835 2.307 1.61 2.307.716 0 1.392-.656 1.392-1.969 0-.418-.08-.875-.239-1.373 0-.02 0-.119.239-.119.577 0 1.014.875 1.014 1.83 0 1.709-1.093 2.564-2.306 2.564-1.451 0-3.062-1.232-3.062-3.658 0-2.505 1.472-5.427 3.38-5.427zm9.007.875l-.041.199c-.139.438-.477 2.665-.477 4.434 0 1.271.238 2.246.736 2.246.258 0 .576-.258.974-.855.06-.1.219-.338.278-.338l.02.061-.02.178-.02.08.039.18c0 .197-.756 1.729-1.789 1.729-1.252 0-1.689-1.451-1.71-3.141-.577 1.531-1.431 3.5-2.505 3.5-1.094 0-1.432-1.551-1.432-3.32 0-1.85.378-3.957.637-4.812 0 0 .079-.259.238-.259.338 0 .676-.02 1.213-.14.238 0 .238.159.238.159 0 .219-.895 2.506-.895 6.124 0 .775.139 1.094.377 1.094.557 0 1.611-1.889 2.148-3.4.1-1.529.457-3.08.795-3.777.119-.238.258-.378.438-.378.26-.001.758.257.758.436zm2.922.1c.338 0 .676-.02 1.213-.14.238 0 .238.159.238.159-.518 2.883-.795 4.036-.795 6.024 0 .676.179.916.438.916.438 0 1.073-.717 1.292-1.234.04-.059.119-.119.179-.119s.1.041.1.119v.041c-.219 1.133-1.054 2.166-2.008 2.166-1.113 0-1.451-1.451-1.451-3.121 0-1.729.357-3.678.557-4.553-.001 0 .078-.258.237-.258zm2.465-4.454c0 .756-.576 1.71-1.271 1.71-.637 0-.916-.477-.916-1.014 0-.735.518-1.61 1.312-1.61.637 0 .875.417.875.914zm2.088-.995c.039-.039.119-.119.219-.119l.079.021c.438.298 1.372.258 1.372.695-.18.975-.418 2.008-.637 3.102.676-.02 1.393-.039 2.088-.1l.576-3.559v-.04c.041-.039.12-.119.219-.119l.08.021c.438.298 1.372.258 1.372.695-.159.915-.378 1.869-.597 2.883 2.267-.179 4.176-.417 4.474-.417.239 0 .577 0 .577.159 0 .139-.239.139-.299.238-.139.219-.18.378-.18.378-.258.119-2.404.438-4.791.735-.397 1.969-.716 4.215-.716 6.918 0 .617.278.936.616.936.378 0 .855-.398 1.113-1.254.021-.059.1-.119.18-.119.059 0 .1.041.1.119v.041c-.279 1.49-.955 2.146-1.65 2.146-1.213 0-1.611-1.709-1.611-3.916 0-1.471.16-3.143.379-4.693-.756.1-1.492.159-2.188.239-.357 1.868-.637 3.997-.637 6.5 0 .617.279.936.617.936.377 0 .854-.398 1.113-1.254.02-.059.1-.119.179-.119.06 0 .099.041.099.119v.041c-.277 1.49-.953 2.146-1.649 2.146-1.213 0-1.61-1.709-1.61-3.916 0-1.352.139-2.883.318-4.334-.498.039-.936.06-1.253.06-1.054 0-1.552-.338-1.552-1.412 0-.179.061-.477.18-.477l.119.079c.557.238 1.551.338 2.704.358.298-1.89.597-3.4.597-3.679v-.038zm14.771 7.695c-.318.158-.756.238-1.173.238l-.239-.02c-.277 2.088-1.232 5.527-3.956 5.527-1.232 0-2.386-.955-2.942-3.32l-.238-.02c-.119-.02-.04-.219-.259-.457l-.04-.061c0-.08.14-.18.238-.18l.299.061c.119-2.406 1.332-4.911 3.182-4.911.875 0 1.371.775 1.371 1.79 0 1.352-.895 3.121-2.982 3.916.16 1.908.855 2.605 1.69 2.605 1.988 0 2.784-2.805 3.081-5.189-.536-.398-.795-1.193-.795-1.93 0-.814.318-1.55.935-1.55.597 0 .735.418.735.915l-.1 1.292c0 .338.041.479.18.479.1 0 .238-.08.438-.199.695-.457 1.75-1.571 1.908-1.571.259 0 .656.517.656.795 0 .518-.357 1.094-.795 1.451-.08.537-.1 1.074-.1 1.57 0 1.689.438 3.102 1.809 3.102 1.015 0 1.949-.656 2.625-1.133.238-.18.695-.498.875-.498l.08.061c0 .1-.119.338-.438.775l.079.398c-.896 1.65-2.107 2.445-3.181 2.445-1.77 0-2.982-1.77-2.982-4.752 0-.518.039-1.055.1-1.631h-.061zm-6.759 1.731c1.432-.518 2.027-1.949 2.027-2.883 0-.479-.158-.836-.457-.836-.895 0-1.531 1.949-1.57 3.719z"/><path fill-rule="evenodd" clip-rule="evenodd" fill="#91C1D9" d="M101.215 15.582c.334.017.649-.084.967-.156.41-.097.809-.231 1.198-.394.051-.021.099-.064.162-.034l-.003-.002c-.32.526-.735.977-1.17 1.405-.256.252-.529.482-.819.692-.079.056-.095.115-.093.204.052 1.659-.223 3.266-.831 4.808-1.165 2.963-3.121 5.219-6.008 6.617-1.259.607-2.595.945-3.986 1.082-1.82.176-3.593-.012-5.32-.615-.837-.293-1.632-.672-2.383-1.143l-.089-.094c2.289.221 4.353-.35 6.224-1.752-1.958-.172-3.265-1.154-3.979-2.992.642.105 1.244.105 1.868-.055-2.109-.639-3.221-2.039-3.366-4.264.617.311 1.22.508 1.922.536-.251-.192-.458-.361-.645-.557-.675-.7-1.075-1.529-1.188-2.499-.102-.876.058-1.698.457-2.48.087-.169.086-.168.206-.027 1.79 2.099 4.026 3.461 6.718 4.068.591.133 1.192.21 1.797.252.122.008.153-.005.129-.146-.42-2.329.988-4.485 3.295-4.986 1.472-.32 2.776.071 3.876 1.108.105.101.198.129.336.098.814-.189 1.587-.483 2.318-.889l.193-.101c-.332 1.011-.944 1.752-1.783 2.316l-.006.014.003-.014"/></svg>