<?xml version="1.0" encoding="utf-8"?>
<!-- Generator: Adobe Illustrator 16.0.0, SVG Export Plug-In . SVG Version: 6.00 Build 0)  -->
<!DOCTYPE svg PUBLIC "-//W3C//DTD SVG 1.1//EN" "http://www.w3.org/Graphics/SVG/1.1/DTD/svg11.dtd">
<svg version="1.1" id="Layer_1" xmlns="http://www.w3.org/2000/svg" xmlns:xlink="http://www.w3.org/1999/xlink" x="0px" y="0px"
	 width="97.317px" height="19.524px" viewBox="0 0 97.317 19.524" enable-background="new 0 0 97.317 19.524" xml:space="preserve">
<path fill="#2A81BA" d="M43.579,3.658c0,0.775-0.259,1.133-0.716,1.709c-0.398,0.497-1.491,1.849-1.491,1.849
	s-0.159,0.159-0.338,0.159c-0.517,0-1.094-1.61-1.094-2.028c0-0.636,0.716-1.292,0.716-1.292s0.616-0.596,0.716-0.795
	c0-0.139-0.835-0.219-1.61-0.219c-4.215,0-10.617,3.798-10.617,8.45c0,3.679,4.036,5.149,6.958,5.149
	c3.062,0,5.707-1.57,7.138-3.578c0,0,0.04-0.021,0.08-0.021c0.179,0,0.219,0.318,0.219,0.318s-0.338,0.497-0.338,0.557
	c0,0.159,0.318,0.259,0.318,0.397c0,0.04-0.02,0.1-0.06,0.179c-0.915,2.067-4.155,4.274-8.072,4.274
	c-4.991,0-7.436-3.877-7.436-8.032c0-3.937,4.493-9.743,11.114-9.743C41.133,0.994,43.579,2.386,43.579,3.658z M50.556,10.12
	c0,0.06-0.02,0.12-0.04,0.199c-0.139,0.438-0.477,2.664-0.477,4.434c0,1.272,0.238,2.246,0.735,2.246
	c0.259,0,0.577-0.258,0.975-0.854c0.06-0.1,0.219-0.338,0.278-0.338c0.02,0,0.02,0.021,0.02,0.06c0,0.04,0,0.1-0.02,0.179
	c0,0.021-0.02,0.021-0.02,0.079c0,0.061,0.039,0.061,0.039,0.18c0,0.199-0.756,1.729-1.789,1.729c-1.253,0-1.69-1.451-1.71-3.142
	c-0.577,1.531-1.432,3.5-2.505,3.5c-1.093,0-1.431-1.551-1.431-3.32c0-1.85,0.377-3.957,0.636-4.812c0,0,0.079-0.258,0.238-0.258
	c0.338,0,0.676-0.02,1.213-0.139c0.239,0,0.239,0.159,0.239,0.159c0,0.219-0.895,2.505-0.895,6.124c0,0.775,0.139,1.094,0.378,1.094
	c0.557,0,1.61-1.89,2.147-3.399c0.099-1.531,0.457-3.082,0.795-3.778c0.12-0.238,0.259-0.378,0.438-0.378
	C50.059,9.682,50.556,9.941,50.556,10.12z M53.479,10.219c0.338,0,0.676-0.02,1.213-0.139c0.238,0,0.238,0.159,0.238,0.159
	c-0.518,2.882-0.795,4.036-0.795,6.024c0,0.677,0.178,0.915,0.438,0.915c0.437,0,1.072-0.716,1.291-1.232
	c0.041-0.061,0.12-0.119,0.18-0.119s0.1,0.039,0.1,0.119v0.039c-0.219,1.133-1.055,2.168-2.008,2.168
	c-1.113,0-1.452-1.452-1.452-3.122c0-1.729,0.358-3.679,0.557-4.553C53.24,10.478,53.319,10.219,53.479,10.219z M55.944,5.766
	c0,0.755-0.576,1.71-1.272,1.71c-0.636,0-0.915-0.477-0.915-1.014c0-0.735,0.518-1.61,1.312-1.61
	C55.706,4.851,55.944,5.269,55.944,5.766z M59.583,9.245c0.795,0,1.392,0.616,1.49,1.968c0.021,0.1,0.041,0.219,0.041,0.318
	c0,0.636-0.518,1.113-1.193,1.113c-0.418,0-0.576-0.159-0.576-0.259c0-0.04,0.02-0.06,0.059-0.06c0.16-0.02,0.518-0.775,0.518-1.232
	c0-0.159-0.04-0.278-0.139-0.318c-1.074,0.08-2.228,2.445-2.228,4.314c0,1.512,0.835,2.307,1.61,2.307
	c0.716,0,1.393-0.656,1.393-1.969c0-0.418-0.08-0.875-0.239-1.371c0-0.021,0-0.12,0.239-0.12c0.576,0,1.014,0.875,1.014,1.829
	c0,1.71-1.094,2.564-2.307,2.564c-1.451,0-3.062-1.232-3.062-3.658C56.202,12.167,57.673,9.245,59.583,9.245z M68.588,10.12
	c0,0.06-0.02,0.12-0.04,0.199c-0.14,0.438-0.478,2.664-0.478,4.434c0,1.272,0.239,2.246,0.736,2.246
	c0.258,0,0.576-0.258,0.975-0.854c0.059-0.1,0.219-0.338,0.277-0.338c0.021,0,0.021,0.021,0.021,0.06c0,0.04,0,0.1-0.021,0.179
	c0,0.021-0.02,0.021-0.02,0.079c0,0.061,0.04,0.061,0.04,0.18c0,0.199-0.756,1.729-1.79,1.729c-1.252,0-1.689-1.451-1.709-3.142
	c-0.577,1.531-1.432,3.5-2.506,3.5c-1.094,0-1.432-1.551-1.432-3.32c0-1.85,0.378-3.957,0.637-4.812c0,0,0.08-0.258,0.238-0.258
	c0.338,0,0.676-0.02,1.213-0.139c0.238,0,0.238,0.159,0.238,0.159c0,0.219-0.895,2.505-0.895,6.124c0,0.775,0.14,1.094,0.378,1.094
	c0.557,0,1.61-1.89,2.147-3.399c0.1-1.531,0.457-3.082,0.795-3.778c0.119-0.238,0.259-0.378,0.438-0.378
	C68.091,9.682,68.588,9.941,68.588,10.12z M71.51,10.219c0.338,0,0.676-0.02,1.213-0.139c0.238,0,0.238,0.159,0.238,0.159
	c-0.517,2.882-0.795,4.036-0.795,6.024c0,0.677,0.18,0.915,0.438,0.915c0.438,0,1.074-0.716,1.293-1.232
	c0.039-0.061,0.119-0.119,0.178-0.119c0.061,0,0.1,0.039,0.1,0.119v0.039c-0.219,1.133-1.053,2.168-2.008,2.168
	c-1.113,0-1.451-1.452-1.451-3.122c0-1.729,0.357-3.679,0.557-4.553C71.272,10.478,71.352,10.219,71.51,10.219z M73.975,5.766
	c0,0.755-0.576,1.71-1.271,1.71c-0.637,0-0.915-0.477-0.915-1.014c0-0.735,0.517-1.61,1.312-1.61
	C73.737,4.851,73.975,5.269,73.975,5.766z M76.063,4.771c0.04-0.04,0.119-0.119,0.219-0.119c0.02,0,0.061,0,0.08,0.02
	c0.438,0.298,1.371,0.259,1.371,0.696c-0.179,0.975-0.417,2.008-0.636,3.102c0.676-0.02,1.392-0.04,2.087-0.1
	c0.279-1.849,0.577-3.3,0.577-3.559v-0.04c0.04-0.04,0.12-0.119,0.219-0.119c0.021,0,0.06,0,0.079,0.02
	c0.438,0.298,1.373,0.259,1.373,0.696c-0.16,0.915-0.379,1.869-0.598,2.883c2.268-0.179,4.176-0.417,4.475-0.417
	c0.238,0,0.576,0,0.576,0.159c0,0.139-0.238,0.139-0.299,0.238c-0.139,0.219-0.179,0.378-0.179,0.378
	c-0.259,0.119-2.405,0.438-4.792,0.735c-0.396,1.969-0.715,4.215-0.715,6.919c0,0.616,0.277,0.935,0.616,0.935
	c0.378,0,0.854-0.397,1.113-1.252c0.021-0.061,0.099-0.119,0.179-0.119c0.06,0,0.1,0.039,0.1,0.119v0.039
	c-0.278,1.491-0.955,2.147-1.65,2.147c-1.213,0-1.61-1.71-1.61-3.917c0-1.471,0.159-3.141,0.378-4.692
	c-0.756,0.099-1.491,0.159-2.188,0.238c-0.357,1.87-0.636,3.997-0.636,6.501c0,0.616,0.278,0.935,0.616,0.935
	c0.378,0,0.855-0.397,1.113-1.252c0.02-0.061,0.1-0.119,0.18-0.119c0.059,0,0.099,0.039,0.099,0.119v0.039
	c-0.278,1.491-0.954,2.147-1.649,2.147c-1.213,0-1.611-1.71-1.611-3.917c0-1.352,0.139-2.883,0.318-4.334
	c-0.497,0.04-0.935,0.06-1.252,0.06c-1.055,0-1.552-0.338-1.552-1.412c0-0.179,0.06-0.477,0.179-0.477c0.04,0,0.08,0.02,0.119,0.079
	c0.557,0.239,1.551,0.338,2.705,0.358c0.298-1.889,0.596-3.4,0.596-3.678V4.771z M90.834,12.465
	c-0.317,0.16-0.755,0.239-1.172,0.239c-0.08,0-0.16,0-0.239-0.021c-0.278,2.088-1.232,5.527-3.956,5.527
	c-1.232,0-2.387-0.954-2.943-3.32c-0.079,0-0.158,0-0.238-0.02c-0.119-0.02-0.039-0.219-0.258-0.457
	c-0.021-0.02-0.041-0.04-0.041-0.06c0-0.08,0.14-0.179,0.239-0.179l0.298,0.059c0.119-2.405,1.332-4.91,3.182-4.91
	c0.875,0,1.371,0.775,1.371,1.789c0,1.352-0.895,3.121-2.981,3.917c0.159,1.909,0.854,2.604,1.69,2.604
	c1.988,0,2.783-2.803,3.081-5.189c-0.536-0.397-0.796-1.193-0.796-1.928c0-0.815,0.318-1.551,0.936-1.551
	c0.596,0,0.735,0.417,0.735,0.915c0,0.417-0.1,0.914-0.1,1.292c0,0.339,0.04,0.478,0.179,0.478c0.1,0,0.238-0.08,0.438-0.199
	c0.696-0.457,1.75-1.57,1.908-1.57c0.26,0,0.656,0.517,0.656,0.795c0,0.518-0.357,1.094-0.795,1.451
	c-0.079,0.537-0.1,1.074-0.1,1.571c0,1.69,0.438,3.102,1.81,3.102c1.015,0,1.948-0.656,2.624-1.134
	c0.239-0.179,0.696-0.496,0.875-0.496c0.04,0,0.08,0.02,0.08,0.059c0,0.1-0.119,0.338-0.438,0.775l0.08,0.398
	c-0.896,1.65-2.108,2.445-3.182,2.445c-1.77,0-2.982-1.77-2.982-4.752c0-0.518,0.039-1.054,0.1-1.631H90.834z M84.075,14.196
	c1.432-0.518,2.028-1.949,2.028-2.883c0-0.478-0.159-0.835-0.457-0.835C84.75,10.478,84.115,12.426,84.075,14.196z"/>
<path fill="#FFFFFF" d="M43.579,2.664c0,0.775-0.259,1.133-0.716,1.71c-0.398,0.497-1.491,1.849-1.491,1.849
	s-0.159,0.159-0.338,0.159c-0.517,0-1.094-1.61-1.094-2.028c0-0.636,0.716-1.292,0.716-1.292s0.616-0.596,0.716-0.795
	c0-0.139-0.835-0.219-1.61-0.219c-4.215,0-10.617,3.797-10.617,8.45c0,3.679,4.036,5.149,6.958,5.149
	c3.062,0,5.707-1.57,7.138-3.578c0,0,0.04-0.021,0.08-0.021c0.179,0,0.219,0.318,0.219,0.318s-0.338,0.497-0.338,0.557
	c0,0.159,0.318,0.259,0.318,0.397c0,0.04-0.02,0.1-0.06,0.18c-0.915,2.067-4.155,4.273-8.072,4.273
	c-4.991,0-7.436-3.877-7.436-8.032C27.952,5.805,32.445,0,39.066,0C41.133,0,43.579,1.392,43.579,2.664z M50.556,9.126
	c0,0.06-0.02,0.119-0.04,0.199c-0.139,0.438-0.477,2.664-0.477,4.434c0,1.272,0.238,2.246,0.735,2.246
	c0.259,0,0.577-0.258,0.975-0.854c0.06-0.099,0.219-0.338,0.278-0.338c0.02,0,0.02,0.021,0.02,0.06c0,0.04,0,0.1-0.02,0.18
	c0,0.02-0.02,0.02-0.02,0.079s0.039,0.06,0.039,0.179c0,0.199-0.756,1.73-1.789,1.73c-1.253,0-1.69-1.452-1.71-3.143
	c-0.577,1.531-1.432,3.5-2.505,3.5c-1.093,0-1.431-1.551-1.431-3.32c0-1.85,0.377-3.957,0.636-4.812c0,0,0.079-0.259,0.238-0.259
	c0.338,0,0.676-0.02,1.213-0.139c0.239,0,0.239,0.159,0.239,0.159c0,0.219-0.895,2.505-0.895,6.124c0,0.775,0.139,1.094,0.378,1.094
	c0.557,0,1.61-1.889,2.147-3.399c0.099-1.531,0.457-3.082,0.795-3.778c0.12-0.238,0.259-0.377,0.438-0.377
	C50.059,8.688,50.556,8.947,50.556,9.126z M53.479,9.225c0.338,0,0.676-0.02,1.213-0.139c0.238,0,0.238,0.159,0.238,0.159
	c-0.518,2.882-0.795,4.037-0.795,6.025c0,0.676,0.178,0.914,0.438,0.914c0.437,0,1.072-0.716,1.291-1.232
	c0.041-0.061,0.12-0.119,0.18-0.119s0.1,0.039,0.1,0.119v0.039c-0.219,1.134-1.055,2.168-2.008,2.168
	c-1.113,0-1.452-1.452-1.452-3.122c0-1.729,0.358-3.678,0.557-4.553C53.24,9.484,53.319,9.225,53.479,9.225z M55.944,4.771
	c0,0.755-0.576,1.71-1.272,1.71c-0.636,0-0.915-0.477-0.915-1.014c0-0.735,0.518-1.61,1.312-1.61
	C55.706,3.857,55.944,4.274,55.944,4.771z M59.583,8.251c0.795,0,1.392,0.616,1.49,1.968c0.021,0.1,0.041,0.219,0.041,0.318
	c0,0.637-0.518,1.113-1.193,1.113c-0.418,0-0.576-0.159-0.576-0.259c0-0.04,0.02-0.06,0.059-0.06c0.16-0.02,0.518-0.775,0.518-1.232
	c0-0.159-0.04-0.278-0.139-0.318c-1.074,0.08-2.228,2.445-2.228,4.314c0,1.512,0.835,2.307,1.61,2.307
	c0.716,0,1.393-0.656,1.393-1.969c0-0.418-0.08-0.875-0.239-1.371c0-0.021,0-0.119,0.239-0.119c0.576,0,1.014,0.874,1.014,1.828
	c0,1.71-1.094,2.565-2.307,2.565c-1.451,0-3.062-1.233-3.062-3.659C56.202,11.174,57.673,8.251,59.583,8.251z M68.588,9.126
	c0,0.06-0.02,0.119-0.04,0.199c-0.14,0.438-0.478,2.664-0.478,4.434c0,1.272,0.239,2.246,0.736,2.246
	c0.258,0,0.576-0.258,0.975-0.854c0.059-0.099,0.219-0.338,0.277-0.338c0.021,0,0.021,0.021,0.021,0.06c0,0.04,0,0.1-0.021,0.18
	c0,0.02-0.02,0.02-0.02,0.079s0.04,0.06,0.04,0.179c0,0.199-0.756,1.73-1.79,1.73c-1.252,0-1.689-1.452-1.709-3.143
	c-0.577,1.531-1.432,3.5-2.506,3.5c-1.094,0-1.432-1.551-1.432-3.32c0-1.85,0.378-3.957,0.637-4.812c0,0,0.08-0.259,0.238-0.259
	c0.338,0,0.676-0.02,1.213-0.139c0.238,0,0.238,0.159,0.238,0.159c0,0.219-0.895,2.505-0.895,6.124c0,0.775,0.14,1.094,0.378,1.094
	c0.557,0,1.61-1.889,2.147-3.399c0.1-1.531,0.457-3.082,0.795-3.778c0.119-0.238,0.259-0.377,0.438-0.377
	C68.091,8.688,68.588,8.947,68.588,9.126z M71.51,9.225c0.338,0,0.676-0.02,1.213-0.139c0.238,0,0.238,0.159,0.238,0.159
	c-0.517,2.882-0.795,4.037-0.795,6.025c0,0.676,0.18,0.914,0.438,0.914c0.438,0,1.074-0.716,1.293-1.232
	c0.039-0.061,0.119-0.119,0.178-0.119c0.061,0,0.1,0.039,0.1,0.119v0.039c-0.219,1.134-1.053,2.168-2.008,2.168
	c-1.113,0-1.451-1.452-1.451-3.122c0-1.729,0.357-3.678,0.557-4.553C71.272,9.484,71.352,9.225,71.51,9.225z M73.975,4.771
	c0,0.755-0.576,1.71-1.271,1.71c-0.637,0-0.915-0.477-0.915-1.014c0-0.735,0.517-1.61,1.312-1.61
	C73.737,3.857,73.975,4.274,73.975,4.771z M76.063,3.777c0.04-0.04,0.119-0.119,0.219-0.119c0.02,0,0.061,0,0.08,0.02
	c0.438,0.298,1.371,0.258,1.371,0.696c-0.179,0.974-0.417,2.008-0.636,3.102c0.676-0.02,1.392-0.04,2.087-0.1
	c0.279-1.849,0.577-3.3,0.577-3.559v-0.04c0.04-0.04,0.12-0.119,0.219-0.119c0.021,0,0.06,0,0.079,0.02
	c0.438,0.298,1.373,0.258,1.373,0.696c-0.16,0.915-0.379,1.869-0.598,2.883c2.268-0.179,4.176-0.417,4.475-0.417
	c0.238,0,0.576,0,0.576,0.159c0,0.139-0.238,0.139-0.299,0.238c-0.139,0.219-0.179,0.378-0.179,0.378
	c-0.259,0.119-2.405,0.438-4.792,0.735c-0.396,1.969-0.715,4.215-0.715,6.92c0,0.615,0.277,0.934,0.616,0.934
	c0.378,0,0.854-0.397,1.113-1.252c0.021-0.061,0.099-0.119,0.179-0.119c0.06,0,0.1,0.039,0.1,0.119v0.039
	c-0.278,1.491-0.955,2.147-1.65,2.147c-1.213,0-1.61-1.71-1.61-3.917c0-1.471,0.159-3.141,0.378-4.692
	c-0.756,0.1-1.491,0.159-2.188,0.239c-0.357,1.869-0.636,3.996-0.636,6.502c0,0.615,0.278,0.934,0.616,0.934
	c0.378,0,0.855-0.397,1.113-1.252c0.02-0.061,0.1-0.119,0.18-0.119c0.059,0,0.099,0.039,0.099,0.119v0.039
	c-0.278,1.491-0.954,2.147-1.649,2.147c-1.213,0-1.611-1.71-1.611-3.917c0-1.352,0.139-2.883,0.318-4.334
	c-0.497,0.04-0.935,0.06-1.252,0.06c-1.055,0-1.552-0.338-1.552-1.412c0-0.179,0.06-0.477,0.179-0.477c0.04,0,0.08,0.02,0.119,0.08
	c0.557,0.238,1.551,0.338,2.705,0.358c0.298-1.889,0.596-3.4,0.596-3.678V3.777z M90.834,11.471
	c-0.317,0.16-0.755,0.239-1.172,0.239c-0.08,0-0.16,0-0.239-0.021c-0.278,2.088-1.232,5.527-3.956,5.527
	c-1.232,0-2.387-0.953-2.943-3.32c-0.079,0-0.158,0-0.238-0.02c-0.119-0.02-0.039-0.219-0.258-0.457
	c-0.021-0.02-0.041-0.04-0.041-0.06c0-0.079,0.14-0.179,0.239-0.179l0.298,0.059c0.119-2.405,1.332-4.91,3.182-4.91
	c0.875,0,1.371,0.775,1.371,1.789c0,1.352-0.895,3.121-2.981,3.917c0.159,1.909,0.854,2.604,1.69,2.604
	c1.988,0,2.783-2.803,3.081-5.189c-0.536-0.397-0.796-1.192-0.796-1.928c0-0.815,0.318-1.551,0.936-1.551
	c0.596,0,0.735,0.417,0.735,0.915c0,0.417-0.1,0.915-0.1,1.292c0,0.338,0.04,0.477,0.179,0.477c0.1,0,0.238-0.08,0.438-0.199
	c0.696-0.458,1.75-1.571,1.908-1.571c0.26,0,0.656,0.517,0.656,0.795c0,0.517-0.357,1.093-0.795,1.451
	c-0.079,0.537-0.1,1.074-0.1,1.571c0,1.69,0.438,3.102,1.81,3.102c1.015,0,1.948-0.656,2.624-1.134
	c0.239-0.178,0.696-0.496,0.875-0.496c0.04,0,0.08,0.02,0.08,0.059c0,0.1-0.119,0.339-0.438,0.775l0.08,0.398
	c-0.896,1.65-2.108,2.445-3.182,2.445c-1.77,0-2.982-1.77-2.982-4.752c0-0.517,0.039-1.054,0.1-1.631H90.834z M84.075,13.202
	c1.432-0.518,2.028-1.948,2.028-2.883c0-0.478-0.159-0.835-0.457-0.835C84.75,9.484,84.115,11.432,84.075,13.202z"/>
<path fill="#2A81BA" d="M18.375,5.238c0.334,0.016,0.649-0.084,0.967-0.157c0.41-0.096,0.809-0.231,1.198-0.393
	c0.051-0.021,0.099-0.065,0.162-0.034l-0.003-0.002c-0.32,0.526-0.735,0.976-1.17,1.405C19.273,6.309,19,6.539,18.71,6.75
	c-0.079,0.056-0.095,0.116-0.093,0.204c0.052,1.66-0.224,3.266-0.831,4.809c-1.165,2.962-3.121,5.218-6.008,6.616
	c-1.259,0.608-2.595,0.946-3.986,1.082c-1.82,0.177-3.593-0.011-5.32-0.614c-0.837-0.293-1.632-0.673-2.383-1.143
	C0.058,17.682,0.013,17.675,0,17.61c2.289,0.221,4.353-0.351,6.224-1.752c-1.958-0.173-3.265-1.156-3.979-2.992
	c0.642,0.105,1.244,0.105,1.868-0.056c-2.109-0.639-3.221-2.039-3.366-4.265c0.617,0.312,1.22,0.509,1.922,0.536
	C2.418,8.89,2.211,8.721,2.024,8.526c-0.675-0.7-1.075-1.53-1.188-2.499C0.734,5.151,0.894,4.328,1.293,3.546
	C1.38,3.377,1.379,3.378,1.499,3.519c1.79,2.099,4.026,3.461,6.718,4.068c0.591,0.133,1.192,0.21,1.797,0.252
	c0.122,0.008,0.153-0.005,0.129-0.145c-0.421-2.329,0.988-4.486,3.295-4.987c1.472-0.32,2.776,0.071,3.876,1.109
	c0.105,0.1,0.198,0.129,0.336,0.097c0.814-0.189,1.587-0.483,2.318-0.888c0.05-0.028,0.101-0.053,0.193-0.101
	c-0.332,1.011-0.944,1.752-1.783,2.317c-0.002,0.004-0.004,0.009-0.006,0.013C18.373,5.25,18.374,5.244,18.375,5.238"/>
<path fill-rule="evenodd" clip-rule="evenodd" fill="#FFFFFF" d="M18.375,4.331c0.334,0.016,0.649-0.084,0.967-0.157
	c0.41-0.096,0.809-0.231,1.198-0.393c0.051-0.021,0.099-0.065,0.162-0.034l-0.003-0.002c-0.32,0.526-0.735,0.976-1.17,1.405
	C19.273,5.402,19,5.632,18.71,5.842c-0.079,0.056-0.095,0.116-0.093,0.204c0.052,1.66-0.224,3.266-0.831,4.809
	c-1.165,2.962-3.121,5.218-6.008,6.616c-1.259,0.609-2.595,0.947-3.986,1.082c-1.82,0.177-3.593-0.01-5.32-0.614
	c-0.837-0.293-1.632-0.673-2.383-1.144C0.058,16.775,0.013,16.768,0,16.702c2.289,0.222,4.353-0.35,6.224-1.75
	c-1.958-0.174-3.265-1.156-3.979-2.994c0.642,0.106,1.244,0.106,1.868-0.055c-2.109-0.639-3.221-2.039-3.366-4.265
	c0.617,0.312,1.22,0.509,1.922,0.536c-0.251-0.191-0.458-0.36-0.645-0.555c-0.675-0.7-1.075-1.53-1.188-2.5
	c-0.102-0.875,0.058-1.698,0.457-2.48C1.38,2.47,1.379,2.471,1.499,2.612c1.79,2.099,4.026,3.461,6.718,4.068
	c0.591,0.133,1.192,0.21,1.797,0.252c0.122,0.008,0.153-0.005,0.129-0.145C9.722,4.458,11.131,2.301,13.438,1.8
	c1.472-0.32,2.776,0.071,3.876,1.109c0.105,0.1,0.198,0.129,0.336,0.097c0.814-0.189,1.587-0.483,2.318-0.888
	c0.05-0.028,0.101-0.053,0.193-0.101c-0.332,1.011-0.944,1.752-1.783,2.317c-0.002,0.004-0.004,0.009-0.006,0.013
	C18.373,4.342,18.374,4.337,18.375,4.331"/>
</svg>
