<?xml version="1.0" encoding="utf-8"?>
<!DOCTYPE svg PUBLIC "-//W3C//DTD SVG 1.1//EN" "http://www.w3.org/Graphics/SVG/1.1/DTD/svg11.dtd">
<svg version="1.1" xmlns="http://www.w3.org/2000/svg" xmlns:xlink="http://www.w3.org/1999/xlink" x="0px" y="0px"
	 width="291px" height="41px" viewBox="0 0 291 41" enable-background="new 0 0 291 41" xml:space="preserve">
<path fill="#4890A8" d="M287.25,0H3.75C1.679,0,0,1.679,0,3.75V41h291V3.75C291,1.679,289.321,0,287.25,0"/>
<path fill="#91C1D9" d="M126.419,13.909c0,0.775-0.259,1.134-0.716,1.71c-0.398,0.497-1.491,1.85-1.491,1.85
	s-0.159,0.158-0.338,0.158c-0.517,0-1.094-1.61-1.094-2.027c0-0.637,0.716-1.293,0.716-1.293s0.616-0.596,0.716-0.795
	c0-0.139-0.835-0.219-1.61-0.219c-4.215,0-10.617,3.798-10.617,8.45c0,3.678,4.036,5.15,6.958,5.15c3.062,0,5.707-1.57,7.138-3.58
	c0,0,0.04-0.02,0.079-0.02c0.179,0,0.219,0.318,0.219,0.318s-0.338,0.498-0.338,0.557c0,0.16,0.318,0.258,0.318,0.398
	c0,0.039-0.02,0.1-0.06,0.178c-0.915,2.068-4.155,4.275-8.072,4.275c-4.991,0-7.436-3.877-7.436-8.033
	c0-3.936,4.493-9.742,11.114-9.742C123.974,11.245,126.419,12.637,126.419,13.909z M133.396,20.371c0,0.06-0.02,0.119-0.04,0.199
	c-0.139,0.438-0.477,2.665-0.477,4.434c0,1.271,0.238,2.246,0.735,2.246c0.259,0,0.577-0.258,0.975-0.855
	c0.06-0.1,0.219-0.338,0.278-0.338c0.02,0,0.02,0.02,0.02,0.061c0,0.039,0,0.1-0.02,0.178c0,0.021-0.02,0.021-0.02,0.08
	c0,0.061,0.04,0.061,0.04,0.18c0,0.197-0.755,1.729-1.789,1.729c-1.253,0-1.69-1.451-1.71-3.141c-0.577,1.531-1.432,3.5-2.505,3.5
	c-1.093,0-1.431-1.551-1.431-3.32c0-1.85,0.377-3.957,0.636-4.812c0,0,0.08-0.259,0.238-0.259c0.338,0,0.676-0.02,1.213-0.14
	c0.239,0,0.239,0.159,0.239,0.159c0,0.219-0.895,2.506-0.895,6.124c0,0.775,0.139,1.094,0.378,1.094c0.557,0,1.61-1.889,2.147-3.4
	c0.099-1.529,0.457-3.08,0.795-3.777c0.12-0.238,0.259-0.378,0.438-0.378C132.9,19.934,133.396,20.192,133.396,20.371z
	 M136.319,20.471c0.338,0,0.676-0.02,1.213-0.14c0.239,0,0.239,0.159,0.239,0.159c-0.517,2.883-0.795,4.036-0.795,6.024
	c0,0.676,0.179,0.916,0.438,0.916c0.437,0,1.074-0.717,1.292-1.234c0.04-0.059,0.12-0.119,0.179-0.119s0.1,0.041,0.1,0.119v0.041
	c-0.219,1.133-1.054,2.166-2.008,2.166c-1.113,0-1.452-1.451-1.452-3.121c0-1.729,0.358-3.678,0.557-4.553
	C136.08,20.729,136.16,20.471,136.319,20.471z M138.784,16.017c0,0.756-0.577,1.71-1.272,1.71c-0.636,0-0.915-0.477-0.915-1.014
	c0-0.735,0.517-1.61,1.312-1.61C138.546,15.103,138.784,15.52,138.784,16.017z M142.422,19.496c0.795,0,1.392,0.616,1.491,1.969
	c0.02,0.1,0.04,0.219,0.04,0.318c0,0.635-0.517,1.113-1.193,1.113c-0.417,0-0.577-0.16-0.577-0.26c0-0.039,0.02-0.059,0.06-0.059
	c0.159-0.02,0.517-0.775,0.517-1.232c0-0.16-0.04-0.279-0.139-0.318c-1.074,0.078-2.227,2.445-2.227,4.314
	c0,1.51,0.835,2.307,1.61,2.307c0.716,0,1.392-0.656,1.392-1.969c0-0.418-0.08-0.875-0.239-1.373c0-0.02,0-0.119,0.239-0.119
	c0.577,0,1.014,0.875,1.014,1.83c0,1.709-1.093,2.564-2.306,2.564c-1.451,0-3.062-1.232-3.062-3.658
	C139.042,22.418,140.514,19.496,142.422,19.496z M151.429,20.371c0,0.06-0.021,0.119-0.041,0.199
	c-0.139,0.438-0.477,2.665-0.477,4.434c0,1.271,0.238,2.246,0.736,2.246c0.258,0,0.576-0.258,0.974-0.855
	c0.06-0.1,0.219-0.338,0.278-0.338c0.02,0,0.02,0.02,0.02,0.061c0,0.039,0,0.1-0.02,0.178c0,0.021-0.02,0.021-0.02,0.08
	c0,0.061,0.039,0.061,0.039,0.18c0,0.197-0.756,1.729-1.789,1.729c-1.252,0-1.689-1.451-1.71-3.141
	c-0.577,1.531-1.431,3.5-2.505,3.5c-1.094,0-1.432-1.551-1.432-3.32c0-1.85,0.378-3.957,0.637-4.812c0,0,0.079-0.259,0.238-0.259
	c0.338,0,0.676-0.02,1.213-0.14c0.238,0,0.238,0.159,0.238,0.159c0,0.219-0.895,2.506-0.895,6.124c0,0.775,0.139,1.094,0.377,1.094
	c0.557,0,1.611-1.889,2.148-3.4c0.1-1.529,0.457-3.08,0.795-3.777c0.119-0.238,0.258-0.378,0.438-0.378
	C150.931,19.934,151.429,20.192,151.429,20.371z M154.351,20.471c0.338,0,0.676-0.02,1.213-0.14c0.238,0,0.238,0.159,0.238,0.159
	c-0.518,2.883-0.795,4.036-0.795,6.024c0,0.676,0.179,0.916,0.438,0.916c0.438,0,1.073-0.717,1.292-1.234
	c0.04-0.059,0.119-0.119,0.179-0.119s0.1,0.041,0.1,0.119v0.041c-0.219,1.133-1.054,2.166-2.008,2.166
	c-1.113,0-1.451-1.451-1.451-3.121c0-1.729,0.357-3.678,0.557-4.553C154.113,20.729,154.192,20.471,154.351,20.471z M156.816,16.017
	c0,0.756-0.576,1.71-1.271,1.71c-0.637,0-0.916-0.477-0.916-1.014c0-0.735,0.518-1.61,1.312-1.61
	C156.578,15.103,156.816,15.52,156.816,16.017z M158.904,15.022c0.039-0.039,0.119-0.119,0.219-0.119c0.02,0,0.06,0,0.079,0.021
	c0.438,0.298,1.372,0.258,1.372,0.695c-0.18,0.975-0.418,2.008-0.637,3.102c0.676-0.02,1.393-0.039,2.088-0.1
	c0.279-1.849,0.576-3.3,0.576-3.559v-0.04c0.041-0.039,0.12-0.119,0.219-0.119c0.021,0,0.061,0,0.08,0.021
	c0.438,0.298,1.372,0.258,1.372,0.695c-0.159,0.915-0.378,1.869-0.597,2.883c2.267-0.179,4.176-0.417,4.474-0.417
	c0.239,0,0.577,0,0.577,0.159c0,0.139-0.239,0.139-0.299,0.238c-0.139,0.219-0.18,0.378-0.18,0.378
	c-0.258,0.119-2.404,0.438-4.791,0.735c-0.397,1.969-0.716,4.215-0.716,6.918c0,0.617,0.278,0.936,0.616,0.936
	c0.378,0,0.855-0.398,1.113-1.254c0.021-0.059,0.1-0.119,0.18-0.119c0.059,0,0.1,0.041,0.1,0.119v0.041
	c-0.279,1.49-0.955,2.146-1.65,2.146c-1.213,0-1.611-1.709-1.611-3.916c0-1.471,0.16-3.143,0.379-4.693
	c-0.756,0.1-1.492,0.159-2.188,0.239c-0.357,1.868-0.637,3.997-0.637,6.5c0,0.617,0.279,0.936,0.617,0.936
	c0.377,0,0.854-0.398,1.113-1.254c0.02-0.059,0.1-0.119,0.179-0.119c0.06,0,0.099,0.041,0.099,0.119v0.041
	c-0.277,1.49-0.953,2.146-1.649,2.146c-1.213,0-1.61-1.709-1.61-3.916c0-1.352,0.139-2.883,0.318-4.334
	c-0.498,0.039-0.936,0.06-1.253,0.06c-1.054,0-1.552-0.338-1.552-1.412c0-0.179,0.061-0.477,0.18-0.477
	c0.039,0,0.08,0.02,0.119,0.079c0.557,0.238,1.551,0.338,2.704,0.358c0.298-1.89,0.597-3.4,0.597-3.679V15.022z M173.675,22.717
	c-0.318,0.158-0.756,0.238-1.173,0.238c-0.079,0-0.159,0-0.239-0.02c-0.277,2.088-1.232,5.527-3.956,5.527
	c-1.232,0-2.386-0.955-2.942-3.32c-0.08,0-0.159,0-0.238-0.02c-0.119-0.02-0.04-0.219-0.259-0.457
	c-0.021-0.021-0.04-0.041-0.04-0.061c0-0.08,0.14-0.18,0.238-0.18l0.299,0.061c0.119-2.406,1.332-4.911,3.182-4.911
	c0.875,0,1.371,0.775,1.371,1.79c0,1.352-0.895,3.121-2.982,3.916c0.16,1.908,0.855,2.605,1.69,2.605
	c1.988,0,2.784-2.805,3.081-5.189c-0.536-0.398-0.795-1.193-0.795-1.93c0-0.814,0.318-1.55,0.935-1.55
	c0.597,0,0.735,0.418,0.735,0.915c0,0.417-0.1,0.915-0.1,1.292c0,0.338,0.041,0.479,0.18,0.479c0.1,0,0.238-0.08,0.438-0.199
	c0.695-0.457,1.75-1.571,1.908-1.571c0.259,0,0.656,0.517,0.656,0.795c0,0.518-0.357,1.094-0.795,1.451
	c-0.08,0.537-0.1,1.074-0.1,1.57c0,1.689,0.438,3.102,1.809,3.102c1.015,0,1.949-0.656,2.625-1.133
	c0.238-0.18,0.695-0.498,0.875-0.498c0.039,0,0.08,0.021,0.08,0.061c0,0.1-0.119,0.338-0.438,0.775l0.079,0.398
	c-0.896,1.65-2.107,2.445-3.181,2.445c-1.77,0-2.982-1.77-2.982-4.752c0-0.518,0.039-1.055,0.1-1.631H173.675z M166.916,24.448
	c1.432-0.518,2.027-1.949,2.027-2.883c0-0.479-0.158-0.836-0.457-0.836C167.591,20.729,166.955,22.678,166.916,24.448z"/>
<path fill-rule="evenodd" clip-rule="evenodd" fill="#91C1D9" d="M101.215,15.582c0.334,0.017,0.649-0.084,0.967-0.156
	c0.41-0.097,0.809-0.231,1.198-0.394c0.051-0.021,0.099-0.064,0.162-0.034l-0.003-0.002c-0.32,0.526-0.735,0.977-1.17,1.405
	c-0.256,0.252-0.529,0.482-0.819,0.692c-0.079,0.056-0.095,0.115-0.093,0.204c0.052,1.659-0.223,3.266-0.831,4.808
	c-1.165,2.963-3.121,5.219-6.008,6.617c-1.259,0.607-2.595,0.945-3.986,1.082c-1.82,0.176-3.593-0.012-5.32-0.615
	c-0.837-0.293-1.632-0.672-2.383-1.143c-0.031-0.021-0.076-0.027-0.089-0.094c2.289,0.221,4.353-0.35,6.224-1.752
	c-1.958-0.172-3.265-1.154-3.979-2.992c0.642,0.105,1.244,0.105,1.868-0.055c-2.109-0.639-3.221-2.039-3.366-4.264
	c0.617,0.311,1.22,0.508,1.922,0.536c-0.251-0.192-0.458-0.361-0.645-0.557c-0.675-0.7-1.075-1.529-1.188-2.499
	c-0.102-0.876,0.058-1.698,0.457-2.48c0.087-0.169,0.086-0.168,0.206-0.027c1.79,2.099,4.026,3.461,6.718,4.068
	c0.591,0.133,1.192,0.21,1.797,0.252c0.122,0.008,0.153-0.005,0.129-0.146c-0.42-2.329,0.988-4.485,3.295-4.986
	c1.472-0.32,2.776,0.071,3.876,1.108c0.105,0.101,0.198,0.129,0.336,0.098c0.814-0.189,1.587-0.483,2.318-0.889
	c0.05-0.027,0.101-0.053,0.193-0.101c-0.332,1.011-0.944,1.752-1.783,2.316c-0.002,0.005-0.004,0.01-0.006,0.014
	C101.213,15.594,101.214,15.588,101.215,15.582"/>
</svg>
