<?xml version="1.0" encoding="utf-8"?>
<!-- Generator: Adobe Illustrator 16.0.0, SVG Export Plug-In . SVG Version: 6.00 Build 0)  -->
<!DOCTYPE svg PUBLIC "-//W3C//DTD SVG 1.1//EN" "http://www.w3.org/Graphics/SVG/1.1/DTD/svg11.dtd">
<svg version="1.1" id="Layer_1" xmlns="http://www.w3.org/2000/svg" xmlns:xlink="http://www.w3.org/1999/xlink" x="0px" y="0px"
	 width="145.659px" height="18.64px" viewBox="0 0 145.659 18.64" enable-background="new 0 0 145.659 18.64" xml:space="preserve">
<g>
	<g>
		<defs>
			<rect id="SVGID_1_" width="145.659" height="18.64"/>
		</defs>
		<clipPath id="SVGID_2_">
			<use xlink:href="#SVGID_1_"  overflow="visible"/>
		</clipPath>
		<g clip-path="url(#SVGID_2_)">
			<text transform="matrix(1 0 0 1 0.6514 14.1582)"><tspan x="0" y="0" fill="#964981" font-family="'ArdoisePtf-NarrowLight'" font-size="16.1595">C</tspan><tspan x="8.92" y="0" fill="#964981" font-family="'ArdoisePtf-NarrowLight'" font-size="16.1595">o</tspan><tspan x="17.21" y="0" fill="#964981" font-family="'ArdoisePtf-NarrowLight'" font-size="16.1595">n</tspan><tspan x="26.308" y="0" fill="#964981" font-family="'ArdoisePtf-NarrowLight'" font-size="16.1595">v</tspan><tspan x="33.595" y="0" fill="#964981" font-family="'ArdoisePtf-NarrowLight'" font-size="16.1595">er</tspan><tspan x="47.169" y="0" fill="#964981" font-family="'ArdoisePtf-NarrowLight'" font-size="16.1595">sat</tspan><tspan x="67.756" y="0" fill="#964981" font-family="'ArdoisePtf-NarrowLight'" font-size="16.1595">ion S</tspan><tspan x="102.417" y="0" fill="#964981" font-family="'ArdoisePtf-NarrowLight'" font-size="16.1595">k</tspan><tspan x="110.271" y="0" fill="#964981" font-family="'ArdoisePtf-NarrowLight'" font-size="16.1595">o</tspan><tspan x="118.56" y="0" fill="#964981" font-family="'ArdoisePtf-NarrowLight'" font-size="16.1595">u</tspan><tspan x="127.544" y="0" fill="#964981" font-family="'ArdoisePtf-NarrowLight'" font-size="16.1595" letter-spacing="1">p</tspan><tspan x="136.577" y="0" fill="#964981" font-family="'ArdoisePtf-NarrowLight'" font-size="16.1595">e</tspan></text>
		</g>
		<path clip-path="url(#SVGID_2_)" fill="none" stroke="#964981" stroke-width="1.25" stroke-miterlimit="10" d="M8.069,13.674
			l0.13-0.712c-0.712,0.389-1.503,0.582-2.312,0.582c-2.537,0-3.603-1.843-3.603-4.864c0-3.135,1.114-4.88,3.312-4.88
			c0.501,0,0.97,0.097,1.407,0.259l0.162,1.874h0.63V3.639C7.245,3.299,6.437,3.04,5.548,3.04C2.543,3.04,1.25,5.4,1.25,8.729
			c0,3.587,1.47,5.638,4.313,5.638C6.583,14.367,7.471,14.076,8.069,13.674z"/>
		<path clip-path="url(#SVGID_2_)" fill="none" stroke="#964981" stroke-width="1.25" stroke-miterlimit="10" d="M15.47,10.005
			c0,2.489-0.84,3.669-2.262,3.669c-1.389,0-2.181-1.002-2.181-3.41c0-2.488,0.84-3.652,2.246-3.652
			C14.678,6.612,15.47,7.598,15.47,10.005z M16.392,9.973c0-2.957-1.213-4.056-3.104-4.056c-1.938,0-3.182,1.341-3.182,4.379
			c0,2.942,1.212,4.073,3.102,4.073C15.147,14.369,16.392,12.994,16.392,9.973z"/>
		<path clip-path="url(#SVGID_2_)" fill="none" stroke="#964981" stroke-width="1.25" stroke-miterlimit="10" d="M24.825,14.158
			V8.615c0-1.002-0.079-1.696-0.742-2.214c-0.452-0.339-1.002-0.484-1.568-0.484c-0.985,0-1.728,0.387-2.456,0.856h-0.032
			l-0.063-0.646h-0.744v8.031h0.855V7.42c0.68-0.42,1.294-0.711,2.117-0.711c0.533,0,0.971,0.146,1.277,0.403
			c0.485,0.421,0.501,1.034,0.501,1.665v5.381H24.825z"/>
		<path clip-path="url(#SVGID_2_)" fill="none" stroke="#964981" stroke-width="1.25" stroke-miterlimit="10" d="M30.691,14.158
			l2.456-8.031h-0.823l-1.454,4.896c-0.195,0.662-0.47,1.551-0.663,2.326H30.19c-0.178-0.791-0.451-1.68-0.646-2.342l-1.471-4.88
			H27.17l2.456,8.031H30.691z"/>
		<path clip-path="url(#SVGID_2_)" fill="none" stroke="#964981" stroke-width="1.25" stroke-miterlimit="10" d="M39.597,9.424
			h-3.863c0.081-1.843,0.696-2.861,2.069-2.861C38.999,6.563,39.661,7.452,39.597,9.424z M40.162,13.786l0.081-0.599
			c-0.599,0.26-1.229,0.438-1.987,0.438c-0.824,0-1.358-0.242-1.745-0.613c-0.679-0.695-0.792-1.892-0.792-2.926h4.718
			c0.033-0.21,0.033-0.647,0.033-0.857c0-2.229-1.02-3.312-2.7-3.312c-1.971,0-2.972,1.518-2.972,4.138
			c0,3.119,1.195,4.313,3.23,4.313C38.82,14.368,39.678,14.126,40.162,13.786z"/>
		<path clip-path="url(#SVGID_2_)" fill="none" stroke="#964981" stroke-width="1.25" stroke-miterlimit="10" d="M44.169,14.158
			v-6.69c0.76-0.42,1.31-0.711,2.035-0.711c0.211,0,0.404,0.032,0.551,0.065l-0.05-0.792c-0.192-0.081-0.371-0.113-0.549-0.113
			c-0.631,0-1.293,0.404-2.004,0.856H44.12l-0.063-0.646h-0.744v8.031H44.169z"/>
		<path clip-path="url(#SVGID_2_)" fill="none" stroke="#964981" stroke-width="1.25" stroke-miterlimit="10" d="M53.104,12.154
			c0-2.763-3.717-2.182-3.717-4.12c0-0.938,0.582-1.406,1.632-1.406c0.582,0,1.164,0.096,1.648,0.274L52.62,6.321
			c-0.452-0.275-1.115-0.404-1.632-0.404c-1.52,0-2.456,0.792-2.456,2.181c0,2.618,3.717,1.987,3.717,4.088
			c0,1.114-0.711,1.471-1.762,1.471c-0.647,0-1.391-0.097-1.924-0.274l0.05,0.582c0.597,0.307,1.404,0.403,2.019,0.403
			C52.071,14.368,53.104,13.625,53.104,12.154z"/>
		<path clip-path="url(#SVGID_2_)" fill="none" stroke="#964981" stroke-width="1.25" stroke-miterlimit="10" d="M60.667,14.158
			v-6.06c0-1.584-1.002-2.182-2.423-2.182c-0.858,0-1.665,0.259-2.15,0.582l-0.081,0.598c0.533-0.227,1.195-0.437,1.955-0.437
			c1.229,0,1.844,0.501,1.844,1.584v1.649c-0.566-0.162-1.164-0.259-1.746-0.259c-1.906,0-2.764,0.89-2.764,2.456
			c0,1.391,0.857,2.277,2.117,2.277c0.889,0,1.6-0.371,2.393-0.838h0.031l0.065,0.629H60.667z M59.812,12.93
			c-0.712,0.421-1.357,0.711-2.117,0.711c-1.052,0-1.553-0.727-1.553-1.632c0-1.147,0.614-1.728,2.103-1.728
			c0.564,0,1.065,0.08,1.567,0.225V12.93z"/>
		<path clip-path="url(#SVGID_2_)" fill="none" stroke="#964981" stroke-width="1.25" stroke-miterlimit="10" d="M67.019,14.029
			l0.097-0.6c-0.324,0.131-0.679,0.211-0.986,0.211c-0.808,0-1.146-0.42-1.146-1.389V6.838h1.971l0.065-0.711h-2.036V4.205
			l-0.857,0.178v1.745l-0.84,0.113v0.598h0.84v5.589c0,1.311,0.566,1.94,1.697,1.94C66.29,14.368,66.728,14.223,67.019,14.029z"/>
		<path clip-path="url(#SVGID_2_)" fill="none" stroke="#964981" stroke-width="1.25" stroke-miterlimit="10" d="M70.686,14.158
			V6.127H69.83v8.031h0.727H70.686z M70.735,3.17V2.2h-0.953v0.97H70.735z"/>
		<path clip-path="url(#SVGID_2_)" fill="none" stroke="#964981" stroke-width="1.25" stroke-miterlimit="10" d="M78.862,10.005
			c0,2.489-0.84,3.669-2.262,3.669c-1.389,0-2.181-1.002-2.181-3.41c0-2.488,0.84-3.652,2.246-3.652
			C78.07,6.612,78.862,7.598,78.862,10.005z M79.784,9.973c0-2.957-1.213-4.056-3.104-4.056c-1.938,0-3.182,1.341-3.182,4.379
			c0,2.942,1.212,4.073,3.102,4.073C78.54,14.369,79.784,12.994,79.784,9.973z"/>
		<path clip-path="url(#SVGID_2_)" fill="none" stroke="#964981" stroke-width="1.25" stroke-miterlimit="10" d="M88.218,14.158
			V8.615c0-1.002-0.079-1.696-0.742-2.214c-0.452-0.339-1.002-0.484-1.568-0.484c-0.985,0-1.728,0.387-2.456,0.856h-0.032
			l-0.063-0.646h-0.744v8.031h0.855V7.42c0.68-0.42,1.294-0.711,2.117-0.711c0.533,0,0.971,0.146,1.277,0.403
			c0.485,0.421,0.501,1.034,0.501,1.665v5.381H88.218z"/>
		<path clip-path="url(#SVGID_2_)" fill="none" stroke="#964981" stroke-width="1.25" stroke-miterlimit="10" d="M101.517,11.395
			c0-3.604-4.557-2.827-4.557-5.591c0-1.163,0.63-1.971,2.052-1.971c0.81,0,1.487,0.209,2.068,0.5l-0.128-0.71
			c-0.453-0.307-1.229-0.582-2.102-0.582c-1.713,0-2.827,1.05-2.827,2.86c0,3.458,4.557,2.731,4.557,5.559
			c0,1.246-0.711,2.117-2.359,2.117c-0.76,0-1.534-0.178-2.229-0.5l0.129,0.711c0.646,0.388,1.438,0.582,2.262,0.582
			C100.273,14.369,101.517,13.334,101.517,11.395z"/>
		<path clip-path="url(#SVGID_2_)" fill="none" stroke="#964981" stroke-width="1.25" stroke-miterlimit="10" d="M108.466,11.33
			c-0.354-0.775-0.76-1.293-1.438-1.535V9.779l2.634-3.652h-0.954l-2.438,3.474c-0.179-0.016-0.405-0.016-0.922-0.016V2.2
			l-0.857,0.129v11.829h0.857V10.28h0.694c0.63,0,1.083,0.194,1.616,1.341l1.115,2.537h0.954L108.466,11.33z"/>
		<path clip-path="url(#SVGID_2_)" fill="none" stroke="#964981" stroke-width="1.25" stroke-miterlimit="10" d="M116.9,10.005
			c0,2.489-0.84,3.669-2.262,3.669c-1.389,0-2.181-1.002-2.181-3.41c0-2.488,0.84-3.652,2.246-3.652
			C116.108,6.612,116.9,7.598,116.9,10.005z M117.821,9.973c0-2.957-1.212-4.056-3.103-4.056c-1.938,0-3.182,1.341-3.182,4.379
			c0,2.942,1.212,4.073,3.102,4.073C116.578,14.369,117.821,12.994,117.821,9.973z"/>
		<path clip-path="url(#SVGID_2_)" fill="none" stroke="#964981" stroke-width="1.25" stroke-miterlimit="10" d="M126,14.158V6.127
			h-0.856v6.738c-0.664,0.404-1.261,0.729-2.053,0.729c-0.501,0-0.921-0.146-1.229-0.42c-0.467-0.422-0.483-1.035-0.483-1.666v-5.38
			h-0.857v5.542c0,1.002,0.082,1.696,0.729,2.215c0.436,0.338,0.984,0.483,1.519,0.483c0.953,0,1.68-0.403,2.391-0.856h0.032
			l0.049,0.646H126z"/>
		<path clip-path="url(#SVGID_2_)" fill="none" stroke="#964981" stroke-width="1.25" stroke-miterlimit="10" d="M135.566,9.989
			c0-2.65-1.052-4.072-2.765-4.072c-0.855,0-1.583,0.404-2.31,0.856h-0.033l-0.063-0.646h-0.744v11.264l0.855-0.129v-3.362
			c0.405,0.259,1.051,0.469,1.73,0.469C134.402,14.368,135.566,12.752,135.566,9.989z M134.646,10.037
			c0,2.489-0.986,3.62-2.587,3.62c-0.564,0-1.099-0.146-1.552-0.404V7.42c0.696-0.42,1.262-0.711,2.004-0.711
			C133.772,6.709,134.646,7.759,134.646,10.037z"/>
		<path clip-path="url(#SVGID_2_)" fill="none" stroke="#964981" stroke-width="1.25" stroke-miterlimit="10" d="M142.659,9.424
			h-3.863c0.081-1.843,0.696-2.861,2.069-2.861C142.062,6.563,142.724,7.452,142.659,9.424z M143.225,13.786l0.081-0.599
			c-0.599,0.26-1.229,0.438-1.987,0.438c-0.824,0-1.358-0.242-1.745-0.613c-0.679-0.695-0.792-1.892-0.792-2.926h4.718
			c0.033-0.21,0.033-0.647,0.033-0.857c0-2.229-1.02-3.312-2.7-3.312c-1.971,0-2.972,1.518-2.972,4.138
			c0,3.119,1.195,4.313,3.23,4.313C141.883,14.368,142.74,14.126,143.225,13.786z"/>
	</g>
</g>
</svg>
