<?xml version="1.0" encoding="utf-8"?>
<!-- Generator: Adobe Illustrator 16.0.0, SVG Export Plug-In . SVG Version: 6.00 Build 0)  -->
<!DOCTYPE svg PUBLIC "-//W3C//DTD SVG 1.1//EN" "http://www.w3.org/Graphics/SVG/1.1/DTD/svg11.dtd">
<svg version="1.1" xmlns="http://www.w3.org/2000/svg" xmlns:xlink="http://www.w3.org/1999/xlink" x="0px" y="0px"
	 width="97.317px" height="18.623px" viewBox="0 0 97.317 18.623" enable-background="new 0 0 97.317 18.623" xml:space="preserve">
<path fill="#91C1D9" d="M43.579,2.664c0,0.775-0.259,1.134-0.716,1.71c-0.398,0.497-1.491,1.85-1.491,1.85s-0.159,0.158-0.338,0.158
	c-0.517,0-1.094-1.61-1.094-2.027c0-0.637,0.716-1.293,0.716-1.293s0.616-0.596,0.716-0.795c0-0.139-0.835-0.219-1.61-0.219
	c-4.215,0-10.617,3.798-10.617,8.45c0,3.678,4.036,5.149,6.958,5.149c3.062,0,5.707-1.57,7.138-3.579c0,0,0.04-0.02,0.079-0.02
	c0.179,0,0.219,0.318,0.219,0.318s-0.338,0.497-0.338,0.557c0,0.159,0.318,0.258,0.318,0.397c0,0.04-0.02,0.1-0.06,0.179
	c-0.915,2.068-4.155,4.274-8.072,4.274c-4.991,0-7.436-3.877-7.436-8.032C27.952,5.806,32.445,0,39.066,0
	C41.133,0,43.579,1.392,43.579,2.664z M50.556,9.126c0,0.06-0.02,0.119-0.039,0.199c-0.139,0.438-0.477,2.664-0.477,4.434
	c0,1.272,0.239,2.246,0.735,2.246c0.26,0,0.577-0.258,0.975-0.854c0.061-0.1,0.219-0.338,0.279-0.338c0.02,0,0.02,0.02,0.02,0.06
	s0,0.1-0.02,0.179c0,0.021-0.021,0.021-0.021,0.08s0.04,0.06,0.04,0.179c0,0.198-0.756,1.729-1.789,1.729
	c-1.253,0-1.69-1.451-1.71-3.142c-0.577,1.531-1.432,3.5-2.505,3.5c-1.093,0-1.431-1.551-1.431-3.32c0-1.85,0.377-3.957,0.636-4.812
	c0,0,0.08-0.259,0.238-0.259c0.338,0,0.676-0.02,1.213-0.14c0.239,0,0.239,0.159,0.239,0.159c0,0.219-0.895,2.506-0.895,6.124
	c0,0.775,0.139,1.094,0.378,1.094c0.557,0,1.61-1.889,2.147-3.4c0.099-1.53,0.457-3.081,0.795-3.777
	c0.12-0.238,0.259-0.378,0.438-0.378C50.06,8.688,50.556,8.947,50.556,9.126z M53.479,9.226c0.338,0,0.677-0.02,1.213-0.14
	c0.239,0,0.239,0.159,0.239,0.159c-0.518,2.883-0.796,4.036-0.796,6.024c0,0.676,0.179,0.915,0.438,0.915
	c0.437,0,1.073-0.716,1.292-1.233c0.04-0.06,0.119-0.119,0.18-0.119c0.059,0,0.1,0.04,0.1,0.119v0.04
	c-0.219,1.134-1.055,2.167-2.009,2.167c-1.113,0-1.452-1.451-1.452-3.121c0-1.729,0.358-3.679,0.557-4.553
	C53.239,9.484,53.319,9.226,53.479,9.226z M55.944,4.771c0,0.756-0.577,1.71-1.273,1.71c-0.636,0-0.914-0.477-0.914-1.014
	c0-0.735,0.518-1.61,1.312-1.61C55.706,3.857,55.944,4.274,55.944,4.771z M59.582,8.251c0.796,0,1.392,0.616,1.491,1.969
	c0.02,0.1,0.04,0.219,0.04,0.318c0,0.636-0.517,1.113-1.192,1.113c-0.418,0-0.577-0.159-0.577-0.259c0-0.04,0.021-0.06,0.06-0.06
	c0.159-0.02,0.518-0.775,0.518-1.232c0-0.159-0.041-0.278-0.14-0.318c-1.073,0.079-2.228,2.445-2.228,4.314
	c0,1.511,0.836,2.307,1.611,2.307c0.715,0,1.392-0.656,1.392-1.969c0-0.418-0.079-0.875-0.239-1.372c0-0.02,0-0.119,0.239-0.119
	c0.577,0,1.014,0.875,1.014,1.829c0,1.71-1.093,2.565-2.306,2.565c-1.451,0-3.062-1.233-3.062-3.659
	C56.202,11.174,57.673,8.251,59.582,8.251z M68.589,9.126c0,0.06-0.021,0.119-0.041,0.199c-0.139,0.438-0.477,2.664-0.477,4.434
	c0,1.272,0.238,2.246,0.736,2.246c0.258,0,0.576-0.258,0.974-0.854c0.06-0.1,0.219-0.338,0.278-0.338c0.02,0,0.02,0.02,0.02,0.06
	s0,0.1-0.02,0.179c0,0.021-0.02,0.021-0.02,0.08s0.039,0.06,0.039,0.179c0,0.198-0.756,1.729-1.789,1.729
	c-1.252,0-1.689-1.451-1.71-3.142c-0.577,1.531-1.431,3.5-2.505,3.5c-1.094,0-1.432-1.551-1.432-3.32
	c0-1.85,0.378-3.957,0.637-4.812c0,0,0.079-0.259,0.238-0.259c0.338,0,0.676-0.02,1.213-0.14c0.238,0,0.238,0.159,0.238,0.159
	c0,0.219-0.895,2.506-0.895,6.124c0,0.775,0.139,1.094,0.377,1.094c0.557,0,1.611-1.889,2.148-3.4c0.1-1.53,0.457-3.081,0.795-3.777
	c0.119-0.238,0.258-0.378,0.438-0.378C68.091,8.688,68.589,8.947,68.589,9.126z M71.511,9.226c0.338,0,0.676-0.02,1.213-0.14
	c0.238,0,0.238,0.159,0.238,0.159c-0.518,2.883-0.795,4.036-0.795,6.024c0,0.676,0.179,0.915,0.438,0.915
	c0.438,0,1.073-0.716,1.292-1.233c0.04-0.06,0.119-0.119,0.179-0.119s0.1,0.04,0.1,0.119v0.04c-0.219,1.134-1.054,2.167-2.008,2.167
	c-1.113,0-1.451-1.451-1.451-3.121c0-1.729,0.357-3.679,0.557-4.553C71.272,9.484,71.352,9.226,71.511,9.226z M73.976,4.771
	c0,0.756-0.576,1.71-1.271,1.71c-0.637,0-0.916-0.477-0.916-1.014c0-0.735,0.518-1.61,1.312-1.61
	C73.737,3.857,73.976,4.274,73.976,4.771z M76.063,3.777c0.039-0.039,0.119-0.119,0.219-0.119c0.02,0,0.06,0,0.079,0.021
	c0.438,0.298,1.372,0.258,1.372,0.695c-0.18,0.975-0.418,2.008-0.637,3.102c0.676-0.02,1.393-0.039,2.088-0.1
	c0.279-1.849,0.576-3.3,0.576-3.559v-0.04c0.041-0.039,0.12-0.119,0.219-0.119c0.021,0,0.061,0,0.08,0.021
	c0.438,0.298,1.372,0.258,1.372,0.695c-0.159,0.915-0.378,1.869-0.597,2.883c2.267-0.179,4.176-0.417,4.474-0.417
	c0.239,0,0.577,0,0.577,0.159c0,0.139-0.239,0.139-0.299,0.238c-0.139,0.219-0.18,0.378-0.18,0.378
	c-0.258,0.119-2.404,0.438-4.791,0.735c-0.397,1.969-0.716,4.215-0.716,6.919c0,0.616,0.278,0.935,0.616,0.935
	c0.378,0,0.855-0.397,1.113-1.253c0.021-0.06,0.1-0.119,0.18-0.119c0.059,0,0.1,0.04,0.1,0.119v0.04
	c-0.279,1.491-0.955,2.147-1.65,2.147c-1.213,0-1.611-1.71-1.611-3.917c0-1.471,0.16-3.142,0.379-4.692
	c-0.756,0.1-1.492,0.159-2.188,0.239c-0.357,1.868-0.637,3.996-0.637,6.501c0,0.616,0.279,0.935,0.617,0.935
	c0.377,0,0.854-0.397,1.113-1.253c0.02-0.06,0.1-0.119,0.179-0.119c0.06,0,0.099,0.04,0.099,0.119v0.04
	c-0.277,1.491-0.953,2.147-1.649,2.147c-1.213,0-1.61-1.71-1.61-3.917c0-1.352,0.139-2.883,0.318-4.334
	c-0.498,0.039-0.936,0.06-1.253,0.06c-1.054,0-1.552-0.338-1.552-1.412c0-0.179,0.061-0.477,0.18-0.477
	c0.039,0,0.08,0.02,0.119,0.079c0.557,0.238,1.551,0.338,2.704,0.358c0.298-1.89,0.597-3.4,0.597-3.679V3.777z M90.835,11.472
	c-0.318,0.159-0.756,0.239-1.173,0.239c-0.079,0-0.159,0-0.239-0.021c-0.277,2.088-1.232,5.527-3.956,5.527
	c-1.232,0-2.386-0.954-2.942-3.32c-0.08,0-0.159,0-0.238-0.02c-0.119-0.02-0.04-0.219-0.259-0.457c-0.021-0.021-0.04-0.04-0.04-0.06
	c0-0.08,0.14-0.18,0.238-0.18l0.299,0.06c0.119-2.405,1.332-4.91,3.182-4.91c0.875,0,1.371,0.775,1.371,1.789
	c0,1.352-0.895,3.121-2.982,3.917c0.16,1.908,0.855,2.604,1.69,2.604c1.988,0,2.784-2.804,3.081-5.189
	c-0.536-0.397-0.795-1.192-0.795-1.929c0-0.814,0.318-1.551,0.935-1.551c0.597,0,0.735,0.418,0.735,0.915
	c0,0.417-0.1,0.914-0.1,1.292c0,0.338,0.041,0.478,0.18,0.478c0.1,0,0.238-0.08,0.438-0.199c0.695-0.457,1.75-1.57,1.908-1.57
	c0.259,0,0.656,0.517,0.656,0.795c0,0.518-0.357,1.094-0.795,1.451c-0.08,0.537-0.1,1.074-0.1,1.571
	c0,1.689,0.438,3.102,1.809,3.102c1.015,0,1.949-0.656,2.625-1.134c0.238-0.179,0.695-0.497,0.875-0.497
	c0.039,0,0.08,0.021,0.08,0.06c0,0.1-0.119,0.339-0.438,0.775l0.079,0.398c-0.896,1.65-2.107,2.445-3.181,2.445
	c-1.77,0-2.982-1.77-2.982-4.752c0-0.517,0.039-1.054,0.1-1.631H90.835z M84.075,13.202c1.432-0.518,2.027-1.948,2.027-2.883
	c0-0.478-0.158-0.835-0.457-0.835C84.751,9.484,84.114,11.433,84.075,13.202z"/>
<path fill-rule="evenodd" clip-rule="evenodd" fill="#91C1D9" d="M18.375,4.337c0.334,0.017,0.649-0.084,0.967-0.156
	c0.41-0.097,0.809-0.231,1.198-0.394c0.051-0.021,0.099-0.064,0.162-0.034l-0.003-0.002c-0.32,0.526-0.735,0.977-1.17,1.405
	C19.273,5.408,19,5.639,18.71,5.849c-0.079,0.056-0.095,0.115-0.093,0.204c0.052,1.659-0.223,3.266-0.831,4.809
	c-1.165,2.962-3.121,5.218-6.008,6.616c-1.259,0.608-2.595,0.946-3.986,1.082c-1.82,0.177-3.593-0.011-5.32-0.614
	c-0.837-0.293-1.632-0.673-2.383-1.143C0.058,16.781,0.013,16.774,0,16.708c2.289,0.222,4.353-0.35,6.224-1.751
	c-1.958-0.173-3.265-1.155-3.979-2.993c0.642,0.106,1.244,0.106,1.868-0.055C2.004,11.271,0.892,9.87,0.747,7.646
	c0.617,0.311,1.22,0.508,1.922,0.536C2.418,7.989,2.211,7.82,2.024,7.625c-0.675-0.7-1.075-1.529-1.188-2.499
	C0.734,4.25,0.894,3.428,1.293,2.646C1.38,2.477,1.379,2.478,1.499,2.618c1.79,2.099,4.026,3.461,6.718,4.068
	c0.591,0.133,1.192,0.21,1.797,0.252c0.122,0.008,0.153-0.005,0.129-0.146c-0.42-2.329,0.988-4.485,3.295-4.986
	c1.472-0.32,2.776,0.071,3.876,1.108c0.105,0.101,0.198,0.129,0.336,0.098c0.814-0.189,1.587-0.483,2.318-0.889
	c0.05-0.027,0.101-0.053,0.193-0.101c-0.332,1.011-0.944,1.752-1.783,2.316c-0.002,0.005-0.004,0.01-0.006,0.014
	C18.373,4.349,18.374,4.343,18.375,4.337"/>
</svg>
