<?xml version="1.0" encoding="utf-8"?>
<!-- Generator: Adobe Illustrator 16.0.0, SVG Export Plug-In . SVG Version: 6.00 Build 0)  -->
<!DOCTYPE svg PUBLIC "-//W3C//DTD SVG 1.1//EN" "http://www.w3.org/Graphics/SVG/1.1/DTD/svg11.dtd">
<svg version="1.1" id="Layer_1" xmlns="http://www.w3.org/2000/svg" xmlns:xlink="http://www.w3.org/1999/xlink" x="0px" y="0px"
	 width="115.489px" height="27.378px" viewBox="0 0 115.489 27.378" enable-background="new 0 0 115.489 27.378"
	 xml:space="preserve">
<path fill="#FFFFFF" d="M6.581,18.371c-0.258,0-0.298-0.199-0.298-0.338c0.159-2.365,0.239-4.812,0.279-7.019
	c-0.895-0.218-1.67-0.656-2.167-1.451c0,0-0.477-0.656-0.577-0.735c-0.08-0.04-0.119-0.12-0.119-0.199c0-0.04,0.06-0.099,0.06-0.159
	V8.43c-0.08-0.159-0.119-0.239-0.119-0.298s0.04-0.08,0.08-0.08c0.099,0,0.238,0.08,0.358,0.12c0.835,0.278,1.67,0.477,2.505,0.616
	c0.02-0.974,0.02-1.889,0.02-2.664c0-1.63,0-2.744,0.02-3.002c0-0.119,0.04-0.219,0.159-0.239c0.199-0.02,1.65-0.099,1.65-0.099
	c0.02,0,0.139,0.02,0.139,0.08c0,0.497-0.338,1.63-0.557,6.064c0.278,0.02,0.537,0.02,0.795,0.02c3.4,0,6.104-1.352,6.104-4.235
	c0-2.386-2.744-3.42-5.805-3.42c-3.857,0-8.192,1.65-8.192,4.414c0,0.159,0.06,0.278,0.06,0.437c0,0.08-0.04,0.14-0.08,0.14
	c-0.04,0-0.08-0.04-0.139-0.1H0.537C0.279,6.124,0,5.885,0,5.388c0-2.803,5.349-5.209,10.021-5.209c3.599,0,6.8,1.431,6.8,5.249
	c0,2.863-2.525,5.865-7.158,5.865c-0.557,0-1.153,0-1.73-0.04c-0.06,1.73-0.08,3.817-0.08,6.362
	C6.701,18.172,6.72,18.371,6.581,18.371z M15.348,17.953c-0.218,0-0.477-0.039-0.477-0.198c0-0.04,0-0.079,0.04-0.119
	c1.113-1.452,1.988-3.997,2.207-5.726c-0.437-0.417-0.656-1.153-0.656-1.829c0-0.815,0.318-1.551,0.934-1.551
	c0.597,0,0.736,0.417,0.736,0.915c0,0.417-0.099,0.915-0.099,1.292c0,0.338,0.04,0.478,0.179,0.478c0.1,0,0.239-0.08,0.438-0.199
	c0.696-0.457,1.75-1.57,1.909-1.57c0.258,0,0.656,0.517,0.656,0.795c0,0.14-0.06,0.259-0.06,0.259
	c-0.557,1.113-1.133,3.122-1.133,4.115c0,1.055,0.338,1.71,0.795,1.71c0.397,0,0.875-0.497,1.312-1.649
	c0.06-0.14,0.02-0.219,0.278-0.398c0.06-0.039,0.099-0.06,0.119-0.06c0.04,0,0.06,0.04,0.06,0.079c0,0.04-0.02,0.1-0.02,0.1
	c-0.139,1.174-0.895,3.381-2.425,3.381c-1.094,0-1.412-1.134-1.412-2.406s0.318-2.684,0.497-3.34
	c-0.318,0.159-0.756,0.239-1.173,0.239c-0.099,0-0.219,0-0.298-0.02c-0.159,1.61-1.232,4.354-2.107,5.647
	C15.646,17.934,15.507,17.953,15.348,17.953z M28.788,11.253c0.219,0,0.438,0,0.656-0.02c0.06-0.099,0.099-0.258,0.099-0.338
	c0,0,0.179-0.438,0.736-9.543c0-0.099,0-0.199,0.04-0.199c0.1,0,0.159,0,0.219,0.06c0.159,0.239,0.736,1.074,0.935,1.292
	c0.119,0.139,0.179,0.278,0.179,0.457c0,0.06,0,0.139-0.02,0.219c-0.397,2.744-0.736,5.428-1.034,7.913
	c0.656-0.08,1.292-0.199,1.909-0.238c0.537,0,1.093,0.596,1.471,1.153c0.099,0.14,0.437,0.08,0.437,0.259
	c0,0.06-0.02,0.139-0.119,0.179c-0.318,0.159-1.889,0.278-2.883,0.278c-0.199,0-0.358-0.02-0.497-0.02
	c-0.159,0-0.179,0.179-0.179,0.179c1.093,1.77,1.67,5.169,1.67,8.212c0,3.34-0.696,6.282-2.127,6.282
	c-1.511,0-1.968-1.511-1.968-3.679c0-3.141,0.954-7.693,1.034-10.935c0,0-0.02-0.378-0.318-0.417
	c-0.537-0.08-0.915-0.159-1.173-0.239c0.02,0.199,0.02,0.397,0.02,0.597c0,2.246-1.193,4.771-2.923,4.771
	c-1.77,0-2.505-1.61-2.505-3.439c0-2.426,1.292-5.269,3.181-5.269c1.531,0,1.65,1.074,1.65,1.452v0.139
	c-0.318-0.139-0.616-0.199-0.895-0.199c-1.729,0-2.565,2.445-2.565,4.394c0,1.292,0.358,2.347,1.074,2.347
	c0.935,0,1.591-1.929,1.591-3.559c0-0.955-0.219-1.79-0.736-2.088c0,0,0.656-0.338,1.113-0.497
	C27.854,11.214,28.311,11.253,28.788,11.253z M30.22,14.494c-0.497,4.613-0.775,8.152-0.775,9.385c0,1.689,0.139,2.405,0.318,2.405
	c0.398,0,1.133-3.996,1.133-7.515C30.896,17.039,30.717,15.429,30.22,14.494z M44.474,17.994c0.08-0.18,0.119-0.239,0.159-0.239
	c0.04,0,0.06,0.079,0.06,0.14v0.059c0,0.041,0.119,0.08,0.119,0.08c-0.139,1.312-1.113,2.028-2.187,2.028
	c-1.829,0-2.982-1.551-3.619-3.778c-0.815,1.094-1.69,1.69-2.425,1.69c-0.994,0-1.75-1.073-1.75-3.439
	c0-1.73,0.298-3.639,0.497-4.494c0,0,0.079-0.258,0.238-0.258c0.338,0,0.676-0.02,1.213-0.139c0.239,0,0.239,0.159,0.239,0.159
	c-0.517,2.883-0.795,4.036-0.795,6.024c0,0.915,0.278,1.293,0.696,1.293c0.537,0,1.292-0.637,1.909-1.551
	c-0.338-1.451-0.477-3.122-0.477-4.812C38.351,5.507,39.722,0,41.194,0c0.915,0,1.292,1.213,1.292,3.022
	c0,1.212-0.676,7.833-2.644,11.85c0.457,2.386,1.412,4.155,3.122,4.155C43.56,19.027,44.156,18.749,44.474,17.994z M38.032,5.329
	c0,0.755-0.577,1.71-1.272,1.71c-0.636,0-0.915-0.477-0.915-1.014c0-0.735,0.517-1.61,1.312-1.61
	C37.794,4.414,38.032,4.832,38.032,5.329z M41.114,1.969c-0.756,0-1.63,4.314-1.63,8.609c0,1.113,0.04,2.227,0.179,3.26
	c1.412-3.658,1.909-9.344,1.909-10.199C41.571,2.604,41.432,1.969,41.114,1.969z M61.751,3.221c0,0.775-0.259,1.133-0.717,1.709
	c-0.397,0.497-1.491,1.849-1.491,1.849s-0.159,0.159-0.338,0.159c-0.517,0-1.094-1.61-1.094-2.028c0-0.636,0.716-1.292,0.716-1.292
	s0.616-0.596,0.716-0.795c0-0.139-0.835-0.219-1.61-0.219c-4.215,0-10.617,3.798-10.617,8.45c0,3.678,4.036,5.149,6.958,5.149
	c3.062,0,5.707-1.571,7.138-3.579c0,0,0.04-0.02,0.08-0.02c0.179,0,0.218,0.318,0.218,0.318s-0.338,0.497-0.338,0.557
	c0,0.159,0.318,0.258,0.318,0.397c0,0.04-0.02,0.1-0.06,0.179c-0.915,2.068-4.155,4.275-8.072,4.275
	c-4.991,0-7.436-3.877-7.436-8.033c0-3.937,4.493-9.743,11.114-9.743C59.305,0.557,61.751,1.949,61.751,3.221z M68.728,9.683
	c0,0.06-0.02,0.12-0.039,0.199c-0.14,0.437-0.478,2.664-0.478,4.434c0,1.272,0.238,2.247,0.735,2.247
	c0.259,0,0.576-0.259,0.975-0.855c0.06-0.1,0.219-0.338,0.278-0.338c0.02,0,0.02,0.02,0.02,0.06s0,0.1-0.02,0.179
	c0,0.02-0.021,0.02-0.021,0.08c0,0.06,0.04,0.06,0.04,0.179c0,0.198-0.755,1.729-1.789,1.729c-1.253,0-1.69-1.451-1.71-3.141
	c-0.576,1.53-1.432,3.498-2.506,3.498c-1.093,0-1.431-1.551-1.431-3.32c0-1.849,0.378-3.956,0.636-4.811c0,0,0.08-0.258,0.238-0.258
	c0.338,0,0.677-0.02,1.213-0.139c0.239,0,0.239,0.159,0.239,0.159c0,0.219-0.896,2.505-0.896,6.124c0,0.775,0.14,1.094,0.379,1.094
	c0.557,0,1.609-1.889,2.146-3.4c0.1-1.531,0.457-3.082,0.795-3.778c0.12-0.238,0.26-0.378,0.438-0.378
	C68.231,9.245,68.728,9.504,68.728,9.683z M71.65,9.782c0.338,0,0.677-0.02,1.213-0.139c0.239,0,0.239,0.159,0.239,0.159
	c-0.517,2.883-0.796,4.036-0.796,6.024c0,0.676,0.18,0.915,0.438,0.915c0.438,0,1.074-0.716,1.293-1.233
	c0.039-0.059,0.119-0.119,0.179-0.119s0.1,0.04,0.1,0.119v0.04c-0.219,1.134-1.054,2.167-2.009,2.167
	c-1.113,0-1.451-1.451-1.451-3.121c0-1.73,0.357-3.678,0.557-4.553C71.412,10.041,71.492,9.782,71.65,9.782z M74.116,5.329
	c0,0.755-0.576,1.71-1.272,1.71c-0.637,0-0.914-0.477-0.914-1.014c0-0.735,0.517-1.61,1.312-1.61
	C73.877,4.414,74.116,4.832,74.116,5.329z M77.754,8.808c0.795,0,1.392,0.616,1.491,1.968c0.02,0.1,0.039,0.219,0.039,0.318
	c0,0.636-0.517,1.114-1.192,1.114c-0.418,0-0.577-0.159-0.577-0.259c0-0.04,0.021-0.06,0.061-0.06
	c0.158-0.02,0.517-0.775,0.517-1.232c0-0.159-0.04-0.278-0.14-0.318c-1.073,0.08-2.227,2.445-2.227,4.314
	c0,1.511,0.835,2.306,1.61,2.306c0.716,0,1.392-0.655,1.392-1.968c0-0.417-0.079-0.874-0.238-1.372c0-0.02,0-0.12,0.238-0.12
	c0.577,0,1.014,0.875,1.014,1.829c0,1.71-1.093,2.565-2.306,2.565c-1.451,0-3.062-1.232-3.062-3.658
	C74.375,11.73,75.845,8.808,77.754,8.808z M86.76,9.683c0,0.06-0.021,0.12-0.04,0.199c-0.139,0.437-0.477,2.664-0.477,4.434
	c0,1.272,0.238,2.247,0.735,2.247c0.259,0,0.577-0.259,0.974-0.855c0.061-0.1,0.219-0.338,0.279-0.338c0.02,0,0.02,0.02,0.02,0.06
	s0,0.1-0.02,0.179c0,0.02-0.021,0.02-0.021,0.08c0,0.06,0.04,0.06,0.04,0.179c0,0.198-0.756,1.729-1.789,1.729
	c-1.253,0-1.69-1.451-1.711-3.141c-0.576,1.53-1.431,3.498-2.504,3.498c-1.094,0-1.432-1.551-1.432-3.32
	c0-1.849,0.377-3.956,0.636-4.811c0,0,0.079-0.258,0.238-0.258c0.339,0,0.677-0.02,1.213-0.139c0.239,0,0.239,0.159,0.239,0.159
	c0,0.219-0.895,2.505-0.895,6.124c0,0.775,0.139,1.094,0.377,1.094c0.557,0,1.61-1.889,2.147-3.4c0.1-1.531,0.457-3.082,0.796-3.778
	c0.119-0.238,0.258-0.378,0.437-0.378C86.263,9.245,86.76,9.504,86.76,9.683z M89.682,9.782c0.339,0,0.677-0.02,1.213-0.139
	c0.239,0,0.239,0.159,0.239,0.159c-0.518,2.883-0.796,4.036-0.796,6.024c0,0.676,0.179,0.915,0.438,0.915
	c0.438,0,1.073-0.716,1.292-1.233c0.04-0.059,0.119-0.119,0.18-0.119c0.059,0,0.1,0.04,0.1,0.119v0.04
	c-0.219,1.134-1.055,2.167-2.009,2.167c-1.113,0-1.451-1.451-1.451-3.121c0-1.73,0.358-3.678,0.557-4.553
	C89.444,10.041,89.523,9.782,89.682,9.782z M92.148,5.329c0,0.755-0.576,1.71-1.272,1.71c-0.637,0-0.915-0.477-0.915-1.014
	c0-0.735,0.518-1.61,1.312-1.61C91.91,4.414,92.148,4.832,92.148,5.329z M94.236,4.334c0.039-0.04,0.119-0.119,0.218-0.119
	c0.021,0,0.06,0,0.079,0.02c0.438,0.298,1.373,0.259,1.373,0.696c-0.18,0.975-0.418,2.008-0.637,3.102
	c0.676-0.02,1.392-0.04,2.088-0.1c0.278-1.849,0.576-3.3,0.576-3.559v-0.04c0.04-0.04,0.119-0.119,0.219-0.119
	c0.02,0,0.06,0,0.08,0.02c0.438,0.298,1.371,0.259,1.371,0.696c-0.158,0.915-0.377,1.869-0.596,2.883
	c2.266-0.179,4.175-0.417,4.473-0.417c0.239,0,0.577,0,0.577,0.159c0,0.139-0.239,0.139-0.298,0.238
	c-0.14,0.219-0.18,0.378-0.18,0.378c-0.258,0.119-2.405,0.438-4.791,0.735c-0.398,1.969-0.717,4.215-0.717,6.919
	c0,0.617,0.279,0.935,0.617,0.935c0.377,0,0.854-0.397,1.113-1.253c0.02-0.059,0.1-0.119,0.179-0.119c0.06,0,0.1,0.04,0.1,0.119
	v0.04c-0.278,1.491-0.954,2.147-1.65,2.147c-1.213,0-1.61-1.71-1.61-3.917c0-1.471,0.159-3.141,0.378-4.692
	c-0.756,0.099-1.491,0.159-2.187,0.238c-0.358,1.869-0.637,3.997-0.637,6.501c0,0.617,0.278,0.935,0.616,0.935
	c0.378,0,0.854-0.397,1.113-1.253c0.021-0.059,0.1-0.119,0.179-0.119c0.061,0,0.1,0.04,0.1,0.119v0.04
	c-0.278,1.491-0.954,2.147-1.65,2.147c-1.213,0-1.61-1.71-1.61-3.917c0-1.352,0.14-2.883,0.318-4.334
	c-0.497,0.04-0.935,0.06-1.253,0.06c-1.054,0-1.551-0.338-1.551-1.412c0-0.179,0.061-0.477,0.18-0.477
	c0.039,0,0.079,0.02,0.119,0.079c0.557,0.239,1.551,0.338,2.703,0.358c0.299-1.889,0.598-3.4,0.598-3.678V4.334z M109.007,12.029
	c-0.318,0.159-0.756,0.239-1.174,0.239c-0.079,0-0.158,0-0.238-0.02c-0.278,2.087-1.232,5.528-3.957,5.528
	c-1.232,0-2.385-0.955-2.941-3.32c-0.08,0-0.16,0-0.239-0.021c-0.119-0.021-0.04-0.219-0.259-0.457
	c-0.02-0.02-0.039-0.04-0.039-0.06c0-0.08,0.139-0.179,0.238-0.179l0.299,0.06c0.119-2.406,1.332-4.911,3.181-4.911
	c0.875,0,1.372,0.775,1.372,1.789c0,1.352-0.895,3.122-2.982,3.917c0.158,1.908,0.854,2.604,1.689,2.604
	c1.988,0,2.783-2.804,3.082-5.189c-0.537-0.397-0.795-1.193-0.795-1.928c0-0.815,0.318-1.551,0.934-1.551
	c0.598,0,0.736,0.417,0.736,0.915c0,0.417-0.1,0.915-0.1,1.292c0,0.338,0.04,0.478,0.18,0.478c0.099,0,0.238-0.08,0.437-0.199
	c0.696-0.457,1.75-1.57,1.909-1.57c0.258,0,0.656,0.517,0.656,0.795c0,0.517-0.358,1.094-0.796,1.452
	c-0.079,0.537-0.099,1.074-0.099,1.571c0,1.689,0.438,3.102,1.809,3.102c1.014,0,1.949-0.656,2.625-1.133
	c0.238-0.18,0.695-0.498,0.875-0.498c0.039,0,0.079,0.021,0.079,0.061c0,0.1-0.12,0.338-0.438,0.775l0.079,0.397
	c-0.895,1.649-2.107,2.445-3.181,2.445c-1.77,0-2.982-1.77-2.982-4.752c0-0.517,0.04-1.054,0.1-1.63H109.007z M102.248,13.759
	c1.432-0.517,2.027-1.949,2.027-2.883c0-0.478-0.159-0.835-0.457-0.835C102.923,10.041,102.287,11.989,102.248,13.759z"/>
</svg>
