<?xml version="1.0" encoding="utf-8"?>
<!DOCTYPE svg PUBLIC "-//W3C//DTD SVG 1.1//EN" "http://www.w3.org/Graphics/SVG/1.1/DTD/svg11.dtd">
<svg version="1.1" xmlns="http://www.w3.org/2000/svg" xmlns:xlink="http://www.w3.org/1999/xlink" x="0px" y="0px"
	 width="42.028px" height="42.029px" viewBox="0 0 42.028 42.029" enable-background="new 0 0 42.028 42.029" xml:space="preserve">
<path fill="#8DC641" d="M38.347,21.015c0,9.572-7.76,17.332-17.333,17.332S3.68,30.587,3.68,21.015
	c0-9.574,7.761-17.333,17.334-17.333S38.347,11.441,38.347,21.015"/>
<circle fill="none" stroke="#95A5A6" stroke-width="0.797" stroke-miterlimit="10" cx="21.014" cy="21.015" r="20.616"/>
<g opacity="0.4">
	<g>
		<defs>
			<rect id="SVGID_1_" x="10.977" y="5.347" width="18.908" height="14.08"/>
		</defs>
		<clipPath id="SVGID_2_">
			<use xlink:href="#SVGID_1_"  overflow="visible"/>
		</clipPath>
		<path clip-path="url(#SVGID_2_)" fill="#B1D474" d="M29.885,12.387c0,3.888-4.233,7.04-9.454,7.04
			c-5.221,0-9.454-3.152-9.454-7.04c0-3.888,4.233-7.04,9.454-7.04C25.651,5.347,29.885,8.5,29.885,12.387"/>
	</g>
</g>
<g opacity="0.4">
	<g>
		<defs>
			<rect id="SVGID_3_" x="14.93" y="5.698" width="11.002" height="5.811"/>
		</defs>
		<clipPath id="SVGID_4_">
			<use xlink:href="#SVGID_3_"  overflow="visible"/>
		</clipPath>
		<path clip-path="url(#SVGID_4_)" fill="#FFFFFF" d="M25.933,8.604c0,1.605-2.463,2.905-5.501,2.905
			c-3.039,0-5.502-1.3-5.502-2.905s2.463-2.905,5.502-2.905C23.47,5.699,25.933,6.999,25.933,8.604"/>
	</g>
</g>
<g opacity="0.2">
	<g>
		<defs>
			<rect id="SVGID_5_" x="15.431" y="32.41" width="10.5" height="4.455"/>
		</defs>
		<clipPath id="SVGID_6_">
			<use xlink:href="#SVGID_5_"  overflow="visible"/>
		</clipPath>
		<path clip-path="url(#SVGID_6_)" fill="#17A186" d="M25.931,34.637c0,1.231-2.35,2.228-5.25,2.228
			c-2.899,0-5.249-0.996-5.249-2.228c0-1.229,2.35-2.228,5.249-2.228C23.581,32.41,25.931,33.408,25.931,34.637"/>
	</g>
</g>
<path fill="#2E2115" d="M17.681,15.001c-0.442,0-1,0.358-1,0.8v3.592c0,0.442,0.558,0.8,1,0.8s1-0.357,1-0.8v-3.592
	C18.681,15.359,18.123,15.001,17.681,15.001"/>
<path fill="#2E2115" d="M23.681,15.001c-0.441,0-1,0.358-1,0.8v3.592c0,0.442,0.559,0.8,1,0.8s1-0.357,1-0.8v-3.592
	C24.681,15.359,24.122,15.001,23.681,15.001"/>
<path fill="#2E2115" d="M21.014,22.939c2.974,0,6.099-1.502,6.099-1.502c-0.64,2.779-3.125,4.854-6.099,4.854
	s-5.459-2.075-6.099-4.854C14.915,21.437,18.04,22.939,21.014,22.939"/>
</svg>
