<svg xmlns="http://www.w3.org/2000/svg" width="97.317" height="18.623"><path fill="#91C1D9" d="M43.579 2.664c0 .775-.259 1.134-.716 1.71l-1.491 1.85s-.159.158-.338.158c-.517 0-1.094-1.61-1.094-2.027 0-.637.716-1.293.716-1.293s.616-.596.716-.795c0-.139-.835-.219-1.61-.219-4.215 0-10.617 3.798-10.617 8.45 0 3.678 4.036 5.149 6.958 5.149 3.062 0 5.707-1.57 7.138-3.579l.079-.02c.179 0 .219.318.219.318s-.338.497-.338.557c0 .159.318.258.318.397l-.06.179c-.915 2.068-4.155 4.274-8.072 4.274-4.991 0-7.436-3.877-7.436-8.032.001-3.935 4.494-9.741 11.115-9.741 2.067 0 4.513 1.392 4.513 2.664zm6.977 6.462l-.039.199c-.139.438-.477 2.664-.477 4.434 0 1.272.239 2.246.735 2.246.26 0 .577-.258.975-.854.061-.1.219-.338.279-.338l.02.06-.02.179-.021.08.04.179c0 .198-.756 1.729-1.789 1.729-1.253 0-1.69-1.451-1.71-3.142-.577 1.531-1.432 3.5-2.505 3.5-1.093 0-1.431-1.551-1.431-3.32 0-1.85.377-3.957.636-4.812 0 0 .08-.259.238-.259.338 0 .676-.02 1.213-.14.239 0 .239.159.239.159 0 .219-.895 2.506-.895 6.124 0 .775.139 1.094.378 1.094.557 0 1.61-1.889 2.147-3.4.099-1.53.457-3.081.795-3.777.12-.238.259-.378.438-.378.258-.001.754.258.754.437zm2.923.1c.338 0 .677-.02 1.213-.14.239 0 .239.159.239.159-.518 2.883-.796 4.036-.796 6.024 0 .676.179.915.438.915.437 0 1.073-.716 1.292-1.233.04-.06.119-.119.18-.119.059 0 .1.04.1.119v.04c-.219 1.134-1.055 2.167-2.009 2.167-1.113 0-1.452-1.451-1.452-3.121 0-1.729.358-3.679.557-4.553-.002 0 .078-.258.238-.258zm2.465-4.455c0 .756-.577 1.71-1.273 1.71-.636 0-.914-.477-.914-1.014 0-.735.518-1.61 1.312-1.61.637 0 .875.417.875.914zm3.638 3.48c.796 0 1.392.616 1.491 1.969l.04.318c0 .636-.517 1.113-1.192 1.113-.418 0-.577-.159-.577-.259l.06-.06c.159-.02.518-.775.518-1.232 0-.159-.041-.278-.14-.318-1.073.079-2.228 2.445-2.228 4.314 0 1.511.836 2.307 1.611 2.307.715 0 1.392-.656 1.392-1.969 0-.418-.079-.875-.239-1.372 0-.02 0-.119.239-.119.577 0 1.014.875 1.014 1.829 0 1.71-1.093 2.565-2.306 2.565-1.451 0-3.062-1.233-3.062-3.659-.001-2.504 1.47-5.427 3.379-5.427zm9.007.875l-.041.199c-.139.438-.477 2.664-.477 4.434 0 1.272.238 2.246.736 2.246.258 0 .576-.258.974-.854.06-.1.219-.338.278-.338l.02.06-.02.179-.02.08.039.179c0 .198-.756 1.729-1.789 1.729-1.252 0-1.689-1.451-1.71-3.142-.577 1.531-1.431 3.5-2.505 3.5-1.094 0-1.432-1.551-1.432-3.32 0-1.85.378-3.957.637-4.812 0 0 .079-.259.238-.259.338 0 .676-.02 1.213-.14.238 0 .238.159.238.159 0 .219-.895 2.506-.895 6.124 0 .775.139 1.094.377 1.094.557 0 1.611-1.889 2.148-3.4.1-1.53.457-3.081.795-3.777.119-.238.258-.378.438-.378.26-.001.758.258.758.437zm2.922.1c.338 0 .676-.02 1.213-.14.238 0 .238.159.238.159-.518 2.883-.795 4.036-.795 6.024 0 .676.179.915.438.915.438 0 1.073-.716 1.292-1.233.04-.06.119-.119.179-.119s.1.04.1.119v.04c-.219 1.134-1.054 2.167-2.008 2.167-1.113 0-1.451-1.451-1.451-3.121 0-1.729.357-3.679.557-4.553-.002 0 .078-.258.237-.258zm2.465-4.455c0 .756-.576 1.71-1.271 1.71-.637 0-.916-.477-.916-1.014 0-.735.518-1.61 1.312-1.61.636 0 .875.417.875.914zm2.087-.994c.039-.039.119-.119.219-.119l.079.021c.438.298 1.372.258 1.372.695-.18.975-.418 2.008-.637 3.102.676-.02 1.393-.039 2.088-.1l.576-3.559v-.04c.041-.039.12-.119.219-.119l.08.021c.438.298 1.372.258 1.372.695-.159.915-.378 1.869-.597 2.883 2.267-.179 4.176-.417 4.474-.417.239 0 .577 0 .577.159 0 .139-.239.139-.299.238-.139.219-.18.378-.18.378-.258.119-2.404.438-4.791.735-.397 1.969-.716 4.215-.716 6.919 0 .616.278.935.616.935.378 0 .855-.397 1.113-1.253.021-.06.1-.119.18-.119.059 0 .1.04.1.119v.04c-.279 1.491-.955 2.147-1.65 2.147-1.213 0-1.611-1.71-1.611-3.917 0-1.471.16-3.142.379-4.692-.756.1-1.492.159-2.188.239-.357 1.868-.637 3.996-.637 6.501 0 .616.279.935.617.935.377 0 .854-.397 1.113-1.253.02-.06.1-.119.179-.119.06 0 .099.04.099.119v.04c-.277 1.491-.953 2.147-1.649 2.147-1.213 0-1.61-1.71-1.61-3.917 0-1.352.139-2.883.318-4.334-.498.039-.936.06-1.253.06-1.054 0-1.552-.338-1.552-1.412 0-.179.061-.477.18-.477l.119.079c.557.238 1.551.338 2.704.358.298-1.89.597-3.4.597-3.679v-.039zm14.772 7.695c-.318.159-.756.239-1.173.239l-.239-.021c-.277 2.088-1.232 5.527-3.956 5.527-1.232 0-2.386-.954-2.942-3.32l-.238-.02c-.119-.02-.04-.219-.259-.457l-.04-.06c0-.08.14-.18.238-.18l.299.06c.119-2.405 1.332-4.91 3.182-4.91.875 0 1.371.775 1.371 1.789 0 1.352-.895 3.121-2.982 3.917.16 1.908.855 2.604 1.69 2.604 1.988 0 2.784-2.804 3.081-5.189-.536-.397-.795-1.192-.795-1.929 0-.814.318-1.551.935-1.551.597 0 .735.418.735.915l-.1 1.292c0 .338.041.478.18.478.1 0 .238-.08.438-.199.695-.457 1.75-1.57 1.908-1.57.259 0 .656.517.656.795 0 .518-.357 1.094-.795 1.451-.08.537-.1 1.074-.1 1.571 0 1.689.438 3.102 1.809 3.102 1.015 0 1.949-.656 2.625-1.134.238-.179.695-.497.875-.497l.08.06c0 .1-.119.339-.438.775l.079.398c-.896 1.65-2.107 2.445-3.181 2.445-1.77 0-2.982-1.77-2.982-4.752 0-.517.039-1.054.1-1.631h-.061zm-6.76 1.73c1.432-.518 2.027-1.948 2.027-2.883 0-.478-.158-.835-.457-.835-.894 0-1.531 1.949-1.57 3.718z"/><path fill-rule="evenodd" clip-rule="evenodd" fill="#91C1D9" d="M18.375 4.337c.334.017.649-.084.967-.156.41-.097.809-.231 1.198-.394.051-.021.099-.064.162-.034l-.003-.002c-.32.526-.735.977-1.17 1.405-.256.252-.529.483-.819.693-.079.056-.095.115-.093.204.052 1.659-.223 3.266-.831 4.809-1.165 2.962-3.121 5.218-6.008 6.616-1.259.608-2.595.946-3.986 1.082-1.82.177-3.593-.011-5.32-.614-.837-.293-1.632-.673-2.383-1.143l-.089-.095c2.289.222 4.353-.35 6.224-1.751-1.958-.173-3.265-1.155-3.979-2.993.642.106 1.244.106 1.868-.055-2.109-.638-3.221-2.039-3.366-4.263.617.311 1.22.508 1.922.536-.251-.193-.458-.362-.645-.557-.675-.7-1.075-1.529-1.188-2.499-.102-.876.058-1.698.457-2.48.087-.169.086-.168.206-.028 1.79 2.099 4.026 3.461 6.718 4.068.591.133 1.192.21 1.797.252.122.008.153-.005.129-.146-.42-2.329.988-4.485 3.295-4.986 1.472-.32 2.776.071 3.876 1.108.105.101.198.129.336.098.814-.189 1.587-.483 2.318-.889l.193-.101c-.332 1.011-.944 1.752-1.783 2.316l-.006.014.003-.015"/></svg>