<svg xmlns="http://www.w3.org/2000/svg" xmlns:xlink="http://www.w3.org/1999/xlink" width="36.93" height="18.501"><g opacity=".5"><defs><rect id="a" width="36.93" height="18.501"/></defs><clipPath id="b"><use xlink:href="#a" overflow="visible"/></clipPath><text transform="translate(.625 14.159)" clip-path="url(#b)"><tspan x="0" y="0" fill="#CBA4C1" font-family="'ArdoisePtf-NarrowLight'" font-size="16.16">P</tspan><tspan x="8.872" y="0" fill="#CBA4C1" font-family="'ArdoisePtf-NarrowLight'" font-size="16.16">r</tspan><tspan x="14.479" y="0" fill="#CBA4C1" font-family="'ArdoisePtf-NarrowLight'" font-size="16.16">oﬁ</tspan><tspan x="31.171" y="0" fill="#CBA4C1" font-family="'ArdoisePtf-NarrowLight'" font-size="16.16">l</tspan></text><path clip-path="url(#b)" stroke="#964981" stroke-width="1.25" stroke-miterlimit="10" d="M6.928 6.531c0 1.778-.954 2.569-2.489 2.569h-1.357v-5.137h1.406c1.325 0 2.44.614 2.44 2.568zm1.034 0c0-2.375-1.39-3.279-3.296-3.279h-2.537v10.907h.953v-4.347h1.535c1.988 0 3.345-1.05 3.345-3.281z" fill="none"/><path clip-path="url(#b)" stroke="#964981" stroke-width="1.25" stroke-miterlimit="10" d="M11.711 14.159v-6.69c.759-.42 1.309-.711 2.036-.711.21 0 .404.032.549.065l-.048-.792c-.194-.081-.371-.113-.549-.113-.631 0-1.293.404-2.004.856h-.032l-.065-.646h-.743v8.031h.856z" fill="none"/><path clip-path="url(#b)" stroke="#964981" stroke-width="1.25" stroke-miterlimit="10" d="M21.003 10.007c0 2.488-.84 3.668-2.263 3.668-1.389 0-2.181-1.002-2.181-3.41 0-2.488.84-3.652 2.246-3.652 1.406-.001 2.198.986 2.198 3.394zm.921-.033c0-2.957-1.212-4.056-3.103-4.056-1.939 0-3.183 1.342-3.183 4.379 0 2.941 1.212 4.073 3.102 4.073 1.94 0 3.184-1.374 3.184-4.396z" fill="none"/><path clip-path="url(#b)" stroke="#964981" stroke-width="1.25" stroke-miterlimit="10" d="M29.502 14.159v-8.031h-3.862v-1.471c0-.953.437-1.745 1.906-1.745.776 0 1.406.178 2.021.437l-.129-.614c-.518-.308-1.276-.533-2.037-.533-1.615 0-2.617.792-2.617 2.359v1.567l-.856.113v.598h.856v7.32h.856v-7.32h3.007v7.32h.855z" fill="none"/><polygon clip-path="url(#b)" stroke="#964981" stroke-width="1.25" stroke-miterlimit="10" points="34.01,14.159 34.01,2.201 33.155,2.33 33.155,14.159" fill="none"/></g></svg>