<svg xmlns="http://www.w3.org/2000/svg" xmlns:xlink="http://www.w3.org/1999/xlink" width="42.028" height="42.029"><path fill="#8DC641" d="M38.347 21.015c0 9.572-7.76 17.332-17.333 17.332s-17.334-7.76-17.334-17.332c0-9.574 7.761-17.333 17.334-17.333s17.333 7.759 17.333 17.333"/><circle stroke="#95A5A6" stroke-width=".797" stroke-miterlimit="10" cx="21.014" cy="21.015" r="20.616" fill="none"/><g opacity=".4"><defs><rect id="a" x="10.977" y="5.347" width="18.908" height="14.08"/></defs><clipPath id="b"><use xlink:href="#a" overflow="visible"/></clipPath><path clip-path="url(#b)" fill="#B1D474" d="M29.885 12.387c0 3.888-4.233 7.04-9.454 7.04-5.221 0-9.454-3.152-9.454-7.04s4.233-7.04 9.454-7.04c5.22 0 9.454 3.153 9.454 7.04"/></g><g opacity=".4"><defs><rect id="c" x="14.93" y="5.698" width="11.002" height="5.811"/></defs><clipPath id="d"><use xlink:href="#c" overflow="visible"/></clipPath><path clip-path="url(#d)" fill="#fff" d="M25.933 8.604c0 1.605-2.463 2.905-5.501 2.905-3.039 0-5.502-1.3-5.502-2.905s2.463-2.905 5.502-2.905c3.038 0 5.501 1.3 5.501 2.905"/></g><g opacity=".2"><defs><rect id="e" x="15.431" y="32.41" width="10.5" height="4.455"/></defs><clipPath id="f"><use xlink:href="#e" overflow="visible"/></clipPath><path clip-path="url(#f)" fill="#17A186" d="M25.931 34.637c0 1.231-2.35 2.228-5.25 2.228-2.899 0-5.249-.996-5.249-2.228 0-1.229 2.35-2.228 5.249-2.228 2.9.001 5.25.999 5.25 2.228"/></g><path fill="#2E2115" d="M17.681 15.001c-.442 0-1 .358-1 .8v3.592c0 .442.558.8 1 .8s1-.357 1-.8v-3.592c0-.442-.558-.8-1-.8"/><path fill="#2E2115" d="M23.681 15.001c-.441 0-1 .358-1 .8v3.592c0 .442.559.8 1 .8s1-.357 1-.8v-3.592c0-.442-.559-.8-1-.8"/><path fill="#2E2115" d="M21.014 22.939c2.974 0 6.099-1.502 6.099-1.502-.64 2.779-3.125 4.854-6.099 4.854s-5.459-2.075-6.099-4.854c0 0 3.125 1.502 6.099 1.502"/></svg>