<svg xmlns="http://www.w3.org/2000/svg" xmlns:xlink="http://www.w3.org/1999/xlink" width="42.028" height="42.028"><path fill="#E64D3C" d="M38.347 21.014c0 9.573-7.76 17.333-17.332 17.333-9.573 0-17.334-7.76-17.334-17.333 0-9.572 7.761-17.333 17.334-17.333 9.572 0 17.332 7.76 17.332 17.333"/><circle stroke="#914949" stroke-miterlimit="10" cx="21.014" cy="21.014" r="17.333" fill="none"/><circle stroke="#95A5A6" stroke-width=".797" stroke-miterlimit="10" cx="21.014" cy="21.014" r="20.616" fill="none"/><g opacity=".4"><defs><rect id="a" x="10.977" y="5.347" width="18.908" height="14.08"/></defs><clipPath id="b"><use xlink:href="#a" overflow="visible"/></clipPath><path clip-path="url(#b)" fill="#F37049" d="M29.885 12.387c0 3.888-4.233 7.04-9.454 7.04s-9.454-3.152-9.454-7.04 4.233-7.04 9.454-7.04 9.454 3.152 9.454 7.04"/></g><g opacity=".4"><defs><rect id="c" x="14.93" y="5.697" width="11.002" height="5.812"/></defs><clipPath id="d"><use xlink:href="#c" overflow="visible"/></clipPath><path clip-path="url(#d)" fill="#F49866" d="M25.933 8.604c0 1.604-2.463 2.905-5.502 2.905s-5.502-1.301-5.502-2.905c0-1.605 2.463-2.905 5.502-2.905s5.502 1.299 5.502 2.905"/></g><g opacity=".2"><defs><rect id="e" x="15.431" y="32.408" width="10.5" height="4.456"/></defs><clipPath id="f"><use xlink:href="#e" overflow="visible"/></clipPath><path clip-path="url(#f)" fill="#A51E22" d="M25.931 34.637c0 1.231-2.35 2.229-5.25 2.229-2.899 0-5.25-.997-5.25-2.229 0-1.23 2.351-2.228 5.25-2.228 2.9 0 5.25.997 5.25 2.228"/></g><path fill="#2E2115" d="M17.681 16.001c-.441 0-1 .357-1 .8v3.592c0 .442.559.8 1 .8s1-.357 1-.8v-3.592c0-.443-.559-.8-1-.8"/><path fill="#2E2115" d="M23.681 16.001c-.441 0-1 .357-1 .8v3.592c0 .442.559.8 1 .8s1-.357 1-.8v-3.592c0-.443-.559-.8-1-.8"/><path fill="#2E2115" d="M21.015 25.464c3.271 0 3.506.888 3.506.888-.369-1.645-1.811-2.481-3.506-2.481-1.879 0-3.139.837-3.507 2.481 0 0 .235-.888 3.507-.888"/><g opacity=".2"><defs><rect id="g" x="23.931" y="9.209" width="4" height="6.75"/></defs><clipPath id="h"><use xlink:href="#g" overflow="visible"/></clipPath><path clip-path="url(#h)" fill="#A51E22" d="M27.931 13.959c0 1.104-.895 2-2 2s-2-.896-2-2c0-1.105 2-4.75 2-4.75s2 3.645 2 4.75"/></g><path fill="#80A8CC" d="M27.931 12.722c0 1.105-.895 2-2 2s-2-.895-2-2l2-4.75s2 3.644 2 4.75"/><path fill="#91C1D9" d="M27.694 12.804c0 .836-.678 1.515-1.514 1.515s-1.514-.679-1.514-1.515l1.514-3.595s1.514 2.759 1.514 3.595"/><g opacity=".7"><defs><rect id="i" x="25.778" y="12.099" width="1.479" height="1.379"/></defs><clipPath id="j"><use xlink:href="#i" overflow="visible"/></clipPath><path clip-path="url(#j)" fill="#F3F7E0" d="M27.257 12.788c0 .381-.331.69-.738.69-.41 0-.74-.31-.74-.69s.33-.689.74-.689c.407 0 .738.308.738.689"/></g></svg>